%TF.GenerationSoftware,KiCad,Pcbnew,7.0.1-0*%
%TF.CreationDate,2023-04-27T22:29:58+08:00*%
%TF.ProjectId,antpanel,616e7470-616e-4656-9c2e-6b696361645f,Alpha 1*%
%TF.SameCoordinates,Original*%
%TF.FileFunction,Legend,Bot*%
%TF.FilePolarity,Positive*%
%FSLAX46Y46*%
G04 Gerber Fmt 4.6, Leading zero omitted, Abs format (unit mm)*
G04 Created by KiCad (PCBNEW 7.0.1-0) date 2023-04-27 22:29:58*
%MOMM*%
%LPD*%
G01*
G04 APERTURE LIST*
%ADD10C,0.100000*%
%ADD11C,0.150000*%
%ADD12C,0.400000*%
G04 APERTURE END LIST*
D10*
X110000000Y-103000000D02*
X124000000Y-103000000D01*
X124000000Y-109000000D01*
X110000000Y-109000000D01*
X110000000Y-103000000D01*
G36*
X110000000Y-103000000D02*
G01*
X124000000Y-103000000D01*
X124000000Y-109000000D01*
X110000000Y-109000000D01*
X110000000Y-103000000D01*
G37*
D11*
X140000000Y-103000000D02*
X160000000Y-103000000D01*
X160000000Y-109000000D01*
X140000000Y-109000000D01*
X140000000Y-103000000D01*
X170000000Y-103000000D02*
X190000000Y-103000000D01*
X190000000Y-109000000D01*
X170000000Y-109000000D01*
X170000000Y-103000000D01*
D10*
X140000000Y-103000000D02*
X154000000Y-103000000D01*
X154000000Y-109000000D01*
X140000000Y-109000000D01*
X140000000Y-103000000D01*
G36*
X140000000Y-103000000D02*
G01*
X154000000Y-103000000D01*
X154000000Y-109000000D01*
X140000000Y-109000000D01*
X140000000Y-103000000D01*
G37*
D11*
X110000000Y-103000000D02*
X130000000Y-103000000D01*
X130000000Y-109000000D01*
X110000000Y-109000000D01*
X110000000Y-103000000D01*
D10*
X170000000Y-103000000D02*
X184000000Y-103000000D01*
X184000000Y-109000000D01*
X170000000Y-109000000D01*
X170000000Y-103000000D01*
G36*
X170000000Y-103000000D02*
G01*
X184000000Y-103000000D01*
X184000000Y-109000000D01*
X170000000Y-109000000D01*
X170000000Y-103000000D01*
G37*
D12*
X186071428Y-107102142D02*
X186214285Y-107245000D01*
X186214285Y-107245000D02*
X186642857Y-107387857D01*
X186642857Y-107387857D02*
X186928571Y-107387857D01*
X186928571Y-107387857D02*
X187357142Y-107245000D01*
X187357142Y-107245000D02*
X187642857Y-106959285D01*
X187642857Y-106959285D02*
X187785714Y-106673571D01*
X187785714Y-106673571D02*
X187928571Y-106102142D01*
X187928571Y-106102142D02*
X187928571Y-105673571D01*
X187928571Y-105673571D02*
X187785714Y-105102142D01*
X187785714Y-105102142D02*
X187642857Y-104816428D01*
X187642857Y-104816428D02*
X187357142Y-104530714D01*
X187357142Y-104530714D02*
X186928571Y-104387857D01*
X186928571Y-104387857D02*
X186642857Y-104387857D01*
X186642857Y-104387857D02*
X186214285Y-104530714D01*
X186214285Y-104530714D02*
X186071428Y-104673571D01*
X127714285Y-106530714D02*
X126285714Y-106530714D01*
X127999999Y-107387857D02*
X126999999Y-104387857D01*
X126999999Y-104387857D02*
X125999999Y-107387857D01*
X156785714Y-105816428D02*
X156357142Y-105959285D01*
X156357142Y-105959285D02*
X156214285Y-106102142D01*
X156214285Y-106102142D02*
X156071428Y-106387857D01*
X156071428Y-106387857D02*
X156071428Y-106816428D01*
X156071428Y-106816428D02*
X156214285Y-107102142D01*
X156214285Y-107102142D02*
X156357142Y-107245000D01*
X156357142Y-107245000D02*
X156642857Y-107387857D01*
X156642857Y-107387857D02*
X157785714Y-107387857D01*
X157785714Y-107387857D02*
X157785714Y-104387857D01*
X157785714Y-104387857D02*
X156785714Y-104387857D01*
X156785714Y-104387857D02*
X156500000Y-104530714D01*
X156500000Y-104530714D02*
X156357142Y-104673571D01*
X156357142Y-104673571D02*
X156214285Y-104959285D01*
X156214285Y-104959285D02*
X156214285Y-105245000D01*
X156214285Y-105245000D02*
X156357142Y-105530714D01*
X156357142Y-105530714D02*
X156500000Y-105673571D01*
X156500000Y-105673571D02*
X156785714Y-105816428D01*
X156785714Y-105816428D02*
X157785714Y-105816428D01*
M02*
