%TF.GenerationSoftware,KiCad,Pcbnew,7.0.1-0*%
%TF.CreationDate,2023-04-27T22:29:58+08:00*%
%TF.ProjectId,antpanel,616e7470-616e-4656-9c2e-6b696361645f,Alpha 1*%
%TF.SameCoordinates,Original*%
%TF.FileFunction,Legend,Top*%
%TF.FilePolarity,Positive*%
%FSLAX46Y46*%
G04 Gerber Fmt 4.6, Leading zero omitted, Abs format (unit mm)*
G04 Created by KiCad (PCBNEW 7.0.1-0) date 2023-04-27 22:29:58*
%MOMM*%
%LPD*%
G01*
G04 APERTURE LIST*
%ADD10C,0.100000*%
%ADD11C,0.150000*%
%ADD12C,0.500000*%
%ADD13C,0.175000*%
%ADD14C,0.400000*%
%ADD15C,0.300000*%
G04 APERTURE END LIST*
D10*
X176000000Y-103000000D02*
X190000000Y-103000000D01*
X190000000Y-109000000D01*
X176000000Y-109000000D01*
X176000000Y-103000000D01*
G36*
X176000000Y-103000000D02*
G01*
X190000000Y-103000000D01*
X190000000Y-109000000D01*
X176000000Y-109000000D01*
X176000000Y-103000000D01*
G37*
D11*
X170000000Y-103000000D02*
X190000000Y-103000000D01*
X190000000Y-109000000D01*
X170000000Y-109000000D01*
X170000000Y-103000000D01*
X140000000Y-103000000D02*
X160000000Y-103000000D01*
X160000000Y-109000000D01*
X140000000Y-109000000D01*
X140000000Y-103000000D01*
D10*
X146000000Y-103000000D02*
X160000000Y-103000000D01*
X160000000Y-109000000D01*
X146000000Y-109000000D01*
X146000000Y-103000000D01*
G36*
X146000000Y-103000000D02*
G01*
X160000000Y-103000000D01*
X160000000Y-109000000D01*
X146000000Y-109000000D01*
X146000000Y-103000000D01*
G37*
D11*
X110000000Y-103000000D02*
X130000000Y-103000000D01*
X130000000Y-109000000D01*
X110000000Y-109000000D01*
X110000000Y-103000000D01*
D10*
X116000000Y-103000000D02*
X130000000Y-103000000D01*
X130000000Y-109000000D01*
X116000000Y-109000000D01*
X116000000Y-103000000D01*
G36*
X116000000Y-103000000D02*
G01*
X130000000Y-103000000D01*
X130000000Y-109000000D01*
X116000000Y-109000000D01*
X116000000Y-103000000D01*
G37*
D12*
G36*
X146638600Y-141444804D02*
G01*
X146687503Y-141447944D01*
X146734420Y-141453101D01*
X146779375Y-141460211D01*
X146822394Y-141469212D01*
X146863505Y-141480041D01*
X146902732Y-141492634D01*
X146940103Y-141506930D01*
X146975642Y-141522864D01*
X147009376Y-141540375D01*
X147041331Y-141559398D01*
X147071533Y-141579872D01*
X147100008Y-141601733D01*
X147126782Y-141624919D01*
X147151881Y-141649365D01*
X147175331Y-141675011D01*
X147197159Y-141701792D01*
X147217389Y-141729645D01*
X147236049Y-141758509D01*
X147253164Y-141788319D01*
X147268760Y-141819013D01*
X147282863Y-141850528D01*
X147295500Y-141882801D01*
X147306696Y-141915769D01*
X147316477Y-141949370D01*
X147324870Y-141983539D01*
X147331900Y-142018215D01*
X147337593Y-142053335D01*
X147341976Y-142088835D01*
X147345075Y-142124652D01*
X147346915Y-142160724D01*
X147347523Y-142196988D01*
X147347523Y-142305432D01*
X147346300Y-142362496D01*
X147342651Y-142415181D01*
X147336607Y-142463779D01*
X147328197Y-142508581D01*
X147317451Y-142549880D01*
X147304400Y-142587968D01*
X147289074Y-142623136D01*
X147271502Y-142655676D01*
X147251715Y-142685881D01*
X147229742Y-142714043D01*
X147205614Y-142740453D01*
X147179361Y-142765403D01*
X147151013Y-142789185D01*
X147120600Y-142812091D01*
X147088152Y-142834414D01*
X147053698Y-142856444D01*
X147090204Y-142875595D01*
X147124176Y-142896827D01*
X147155639Y-142920210D01*
X147184616Y-142945814D01*
X147211134Y-142973711D01*
X147235216Y-143003971D01*
X147256888Y-143036666D01*
X147276173Y-143071866D01*
X147293097Y-143109642D01*
X147307685Y-143150065D01*
X147319960Y-143193205D01*
X147329948Y-143239134D01*
X147337674Y-143287923D01*
X147343162Y-143339641D01*
X147346436Y-143394361D01*
X147347523Y-143452152D01*
X147347523Y-143623611D01*
X147346795Y-143672383D01*
X147344606Y-143719775D01*
X147340943Y-143765776D01*
X147335797Y-143810374D01*
X147329157Y-143853558D01*
X147321011Y-143895317D01*
X147311348Y-143935642D01*
X147300158Y-143974519D01*
X147287431Y-144011939D01*
X147273154Y-144047890D01*
X147257317Y-144082362D01*
X147239910Y-144115343D01*
X147220921Y-144146823D01*
X147200340Y-144176790D01*
X147178156Y-144205233D01*
X147154357Y-144232142D01*
X147128933Y-144257505D01*
X147101874Y-144281312D01*
X147073167Y-144303551D01*
X147042803Y-144324211D01*
X147010771Y-144343282D01*
X146977059Y-144360752D01*
X146941657Y-144376610D01*
X146904554Y-144390846D01*
X146865739Y-144403449D01*
X146825201Y-144414406D01*
X146782929Y-144423708D01*
X146738913Y-144431344D01*
X146693141Y-144437302D01*
X146645603Y-144441571D01*
X146596288Y-144444141D01*
X146545185Y-144445000D01*
X145961933Y-144445000D01*
X145961933Y-143041092D01*
X146389846Y-143041092D01*
X146389846Y-144017086D01*
X146575227Y-144017086D01*
X146606586Y-144016463D01*
X146636126Y-144014610D01*
X146689970Y-144007307D01*
X146737189Y-143995366D01*
X146778215Y-143978973D01*
X146813480Y-143958317D01*
X146843414Y-143933585D01*
X146868449Y-143904966D01*
X146889018Y-143872647D01*
X146905550Y-143836816D01*
X146918478Y-143797661D01*
X146928234Y-143755370D01*
X146935248Y-143710130D01*
X146939953Y-143662130D01*
X146942779Y-143611557D01*
X146944158Y-143558598D01*
X146944522Y-143503443D01*
X146943837Y-143448140D01*
X146941584Y-143396272D01*
X146937465Y-143347858D01*
X146931184Y-143302916D01*
X146922442Y-143261465D01*
X146910944Y-143223522D01*
X146896390Y-143189107D01*
X146878485Y-143158237D01*
X146856930Y-143130930D01*
X146831428Y-143107205D01*
X146801683Y-143087079D01*
X146767396Y-143070572D01*
X146728271Y-143057702D01*
X146684010Y-143048486D01*
X146634315Y-143042943D01*
X146578890Y-143041092D01*
X146389846Y-143041092D01*
X145961933Y-143041092D01*
X145961933Y-141847477D01*
X146389846Y-141847477D01*
X146389846Y-142663004D01*
X146583287Y-142663004D01*
X146634436Y-142661308D01*
X146680854Y-142656240D01*
X146722738Y-142647828D01*
X146760286Y-142636099D01*
X146793696Y-142621081D01*
X146823164Y-142602803D01*
X146848888Y-142581291D01*
X146871066Y-142556575D01*
X146889895Y-142528681D01*
X146905573Y-142497639D01*
X146918297Y-142463475D01*
X146928264Y-142426218D01*
X146935673Y-142385895D01*
X146940721Y-142342535D01*
X146943604Y-142296165D01*
X146944522Y-142246814D01*
X146943367Y-142199101D01*
X146939816Y-142154341D01*
X146933741Y-142112553D01*
X146925013Y-142073753D01*
X146913503Y-142037958D01*
X146899081Y-142005185D01*
X146881620Y-141975452D01*
X146860991Y-141948777D01*
X146837064Y-141925175D01*
X146809711Y-141904664D01*
X146778804Y-141887262D01*
X146744212Y-141872985D01*
X146705808Y-141861851D01*
X146663463Y-141853877D01*
X146617048Y-141849080D01*
X146566434Y-141847477D01*
X146389846Y-141847477D01*
X145961933Y-141847477D01*
X145961933Y-141443743D01*
X146587683Y-141443743D01*
X146638600Y-141444804D01*
G37*
G36*
X147724145Y-143755502D02*
G01*
X147725217Y-143801001D01*
X147728386Y-143845037D01*
X147733579Y-143887611D01*
X147740726Y-143928725D01*
X147749754Y-143968380D01*
X147760592Y-144006576D01*
X147773169Y-144043316D01*
X147787412Y-144078601D01*
X147803249Y-144112431D01*
X147820611Y-144144808D01*
X147839424Y-144175733D01*
X147859617Y-144205207D01*
X147881118Y-144233232D01*
X147903856Y-144259808D01*
X147927760Y-144284937D01*
X147952756Y-144308620D01*
X147978775Y-144330859D01*
X148005744Y-144351654D01*
X148033591Y-144371007D01*
X148062245Y-144388919D01*
X148091634Y-144405390D01*
X148121687Y-144420424D01*
X148152332Y-144434019D01*
X148183497Y-144446179D01*
X148215111Y-144456903D01*
X148247102Y-144466194D01*
X148279398Y-144474052D01*
X148311928Y-144480478D01*
X148344620Y-144485474D01*
X148377402Y-144489042D01*
X148410203Y-144491181D01*
X148442952Y-144491894D01*
X148475633Y-144491181D01*
X148508372Y-144489042D01*
X148541096Y-144485474D01*
X148573734Y-144480478D01*
X148606213Y-144474052D01*
X148638462Y-144466194D01*
X148670409Y-144456903D01*
X148701983Y-144446179D01*
X148733111Y-144434019D01*
X148763722Y-144420424D01*
X148793744Y-144405390D01*
X148823105Y-144388919D01*
X148851733Y-144371007D01*
X148879558Y-144351654D01*
X148906506Y-144330859D01*
X148932506Y-144308620D01*
X148957487Y-144284937D01*
X148981376Y-144259808D01*
X149004102Y-144233232D01*
X149025593Y-144205207D01*
X149045777Y-144175733D01*
X149064582Y-144144808D01*
X149081937Y-144112431D01*
X149097771Y-144078601D01*
X149112010Y-144043316D01*
X149124583Y-144006576D01*
X149135419Y-143968380D01*
X149144446Y-143928725D01*
X149151592Y-143887611D01*
X149156785Y-143845037D01*
X149159954Y-143801001D01*
X149161026Y-143755502D01*
X149161026Y-142803688D01*
X148392393Y-142803688D01*
X148392393Y-143181775D01*
X148732379Y-143181775D01*
X148732379Y-143755502D01*
X148730836Y-143793501D01*
X148726314Y-143828924D01*
X148718981Y-143861788D01*
X148709001Y-143892110D01*
X148696539Y-143919908D01*
X148673555Y-143956909D01*
X148645917Y-143988326D01*
X148614184Y-144014218D01*
X148578913Y-144034643D01*
X148540661Y-144049658D01*
X148499987Y-144059321D01*
X148457449Y-144063691D01*
X148442952Y-144063981D01*
X148399729Y-144061363D01*
X148358219Y-144053471D01*
X148318977Y-144040246D01*
X148282557Y-144021631D01*
X148249513Y-143997568D01*
X148220400Y-143967999D01*
X148195771Y-143932866D01*
X148182117Y-143906323D01*
X148170867Y-143877265D01*
X148162185Y-143845674D01*
X148156234Y-143811533D01*
X148153181Y-143774824D01*
X148152791Y-143755502D01*
X148152791Y-142172076D01*
X148154335Y-142135141D01*
X148158858Y-142100715D01*
X148166194Y-142068778D01*
X148176181Y-142039314D01*
X148188654Y-142012306D01*
X148211665Y-141976362D01*
X148239345Y-141945846D01*
X148271140Y-141920701D01*
X148306496Y-141900869D01*
X148344859Y-141886292D01*
X148385674Y-141876912D01*
X148428388Y-141872671D01*
X148442952Y-141872390D01*
X148485987Y-141874930D01*
X148527345Y-141882591D01*
X148566466Y-141895429D01*
X148602792Y-141913503D01*
X148635767Y-141936870D01*
X148664832Y-141965589D01*
X148689429Y-141999718D01*
X148709001Y-142039314D01*
X148718981Y-142068778D01*
X148726314Y-142100715D01*
X148730836Y-142135141D01*
X148732379Y-142172076D01*
X148732379Y-142321552D01*
X149161026Y-142321552D01*
X149161026Y-142172076D01*
X149159954Y-142127374D01*
X149156785Y-142084080D01*
X149151592Y-142042197D01*
X149144446Y-142001723D01*
X149135419Y-141962661D01*
X149124583Y-141925010D01*
X149112010Y-141888771D01*
X149097771Y-141853945D01*
X149081937Y-141820533D01*
X149064582Y-141788535D01*
X149045777Y-141757952D01*
X149025593Y-141728785D01*
X149004102Y-141701034D01*
X148981376Y-141674699D01*
X148957487Y-141649783D01*
X148932506Y-141626284D01*
X148906506Y-141604205D01*
X148879558Y-141583545D01*
X148851733Y-141564306D01*
X148823105Y-141546487D01*
X148793744Y-141530090D01*
X148763722Y-141515116D01*
X148733111Y-141501564D01*
X148701983Y-141489436D01*
X148670409Y-141478732D01*
X148638462Y-141469453D01*
X148606213Y-141461600D01*
X148573734Y-141455174D01*
X148541096Y-141450174D01*
X148508372Y-141446602D01*
X148475633Y-141444458D01*
X148442952Y-141443743D01*
X148410203Y-141444458D01*
X148377402Y-141446602D01*
X148344620Y-141450174D01*
X148311928Y-141455174D01*
X148279398Y-141461600D01*
X148247102Y-141469453D01*
X148215111Y-141478732D01*
X148183497Y-141489436D01*
X148152332Y-141501564D01*
X148121687Y-141515116D01*
X148091634Y-141530090D01*
X148062245Y-141546487D01*
X148033591Y-141564306D01*
X148005744Y-141583545D01*
X147978775Y-141604205D01*
X147952756Y-141626284D01*
X147927760Y-141649783D01*
X147903856Y-141674699D01*
X147881118Y-141701034D01*
X147859617Y-141728785D01*
X147839424Y-141757952D01*
X147820611Y-141788535D01*
X147803249Y-141820533D01*
X147787412Y-141853945D01*
X147773169Y-141888771D01*
X147760592Y-141925010D01*
X147749754Y-141962661D01*
X147740726Y-142001723D01*
X147733579Y-142042197D01*
X147728386Y-142084080D01*
X147725217Y-142127374D01*
X147724145Y-142172076D01*
X147724145Y-143755502D01*
G37*
G36*
X150112840Y-142737009D02*
G01*
X150120900Y-142745069D01*
X150140846Y-142734002D01*
X150172006Y-142722763D01*
X150205709Y-142715160D01*
X150238881Y-142710654D01*
X150268833Y-142708464D01*
X150301884Y-142707700D01*
X150330026Y-142708665D01*
X150371519Y-142713597D01*
X150411908Y-142722458D01*
X150450925Y-142734960D01*
X150488302Y-142750818D01*
X150523772Y-142769745D01*
X150557065Y-142791456D01*
X150587915Y-142815664D01*
X150616052Y-142842082D01*
X150641210Y-142870426D01*
X150663119Y-142900408D01*
X150670024Y-142911440D01*
X150688755Y-142944772D01*
X150704669Y-142979920D01*
X150717975Y-143018768D01*
X150725497Y-143047652D01*
X150732013Y-143079576D01*
X150737583Y-143115097D01*
X150742268Y-143154775D01*
X150746131Y-143199166D01*
X150749231Y-143248830D01*
X150751630Y-143304324D01*
X150752586Y-143334432D01*
X150753390Y-143366207D01*
X150754049Y-143399718D01*
X150754571Y-143435036D01*
X150754964Y-143472230D01*
X150755235Y-143511370D01*
X150755392Y-143552526D01*
X150755443Y-143595767D01*
X150755392Y-143631295D01*
X150755234Y-143665105D01*
X150754961Y-143697263D01*
X150754563Y-143727834D01*
X150753361Y-143784474D01*
X150751562Y-143835541D01*
X150749097Y-143881555D01*
X150745899Y-143923035D01*
X150741900Y-143960498D01*
X150737033Y-143994463D01*
X150731230Y-144025449D01*
X150724424Y-144053973D01*
X150712184Y-144093279D01*
X150697306Y-144129963D01*
X150679562Y-144165776D01*
X150658723Y-144202466D01*
X150637234Y-144236146D01*
X150613757Y-144267917D01*
X150588366Y-144297743D01*
X150561133Y-144325588D01*
X150532130Y-144351415D01*
X150501432Y-144375187D01*
X150469111Y-144396869D01*
X150435241Y-144416423D01*
X150399893Y-144433814D01*
X150363141Y-144449004D01*
X150325059Y-144461957D01*
X150285718Y-144472637D01*
X150245193Y-144481007D01*
X150203555Y-144487031D01*
X150160879Y-144490672D01*
X150117236Y-144491894D01*
X150074287Y-144490624D01*
X150032307Y-144486851D01*
X149991355Y-144480631D01*
X149951491Y-144472019D01*
X149912773Y-144461072D01*
X149875260Y-144447845D01*
X149839012Y-144432394D01*
X149804087Y-144414774D01*
X149770544Y-144395043D01*
X149738443Y-144373255D01*
X149707842Y-144349466D01*
X149678801Y-144323733D01*
X149651379Y-144296110D01*
X149625634Y-144266655D01*
X149601626Y-144235421D01*
X149579414Y-144202466D01*
X149557450Y-144165776D01*
X149538792Y-144129963D01*
X149523188Y-144093279D01*
X149510390Y-144053973D01*
X149503292Y-144025449D01*
X149497256Y-143994463D01*
X149492208Y-143960498D01*
X149488073Y-143923035D01*
X149484777Y-143881555D01*
X149483084Y-143850757D01*
X149906943Y-143850757D01*
X149908106Y-143874524D01*
X149913994Y-143908027D01*
X149924449Y-143938787D01*
X149939008Y-143966621D01*
X149957214Y-143991342D01*
X149978604Y-144012768D01*
X150002720Y-144030712D01*
X150029102Y-144044990D01*
X150057288Y-144055417D01*
X150086820Y-144061809D01*
X150117236Y-144063981D01*
X150137582Y-144063011D01*
X150167420Y-144058005D01*
X150196039Y-144048902D01*
X150222987Y-144035887D01*
X150247812Y-144019145D01*
X150270059Y-143998859D01*
X150289277Y-143975216D01*
X150305013Y-143948399D01*
X150316813Y-143918594D01*
X150324225Y-143885985D01*
X150326797Y-143850757D01*
X150326797Y-143299012D01*
X150325643Y-143275236D01*
X150319794Y-143241694D01*
X150309406Y-143210867D01*
X150294932Y-143182948D01*
X150276824Y-143158128D01*
X150255536Y-143136600D01*
X150231521Y-143118556D01*
X150205230Y-143104188D01*
X150177117Y-143093687D01*
X150147635Y-143087245D01*
X150117236Y-143085055D01*
X150096883Y-143086033D01*
X150067005Y-143091079D01*
X150038319Y-143100248D01*
X150011285Y-143113349D01*
X149986363Y-143130189D01*
X149964013Y-143150577D01*
X149944695Y-143174321D01*
X149928868Y-143201228D01*
X149916995Y-143231107D01*
X149909533Y-143263766D01*
X149906943Y-143299012D01*
X149906943Y-143850757D01*
X149483084Y-143850757D01*
X149482247Y-143835541D01*
X149480408Y-143784474D01*
X149479186Y-143727834D01*
X149478783Y-143697263D01*
X149478507Y-143665105D01*
X149478348Y-143631295D01*
X149478297Y-143595767D01*
X149478360Y-143562103D01*
X149478550Y-143530035D01*
X149478871Y-143499497D01*
X149479915Y-143442749D01*
X149481516Y-143391336D01*
X149483698Y-143344731D01*
X149486485Y-143302411D01*
X149489899Y-143263850D01*
X149493964Y-143228523D01*
X149498705Y-143195906D01*
X149504145Y-143165474D01*
X149513666Y-143122775D01*
X149524892Y-143082038D01*
X149537903Y-143041494D01*
X149547608Y-143013696D01*
X149558165Y-142984672D01*
X150120900Y-141443743D01*
X150600105Y-141443743D01*
X150112840Y-142737009D01*
G37*
G36*
X151099825Y-144445000D02*
G01*
X152376239Y-144445000D01*
X152376239Y-144017086D01*
X151527739Y-144017086D01*
X151527739Y-141443743D01*
X151099825Y-141443743D01*
X151099825Y-144445000D01*
G37*
G36*
X152653210Y-144445000D02*
G01*
X153081123Y-144445000D01*
X153081123Y-143087986D01*
X153610886Y-143087986D01*
X153610886Y-144445000D01*
X154038800Y-144445000D01*
X154038800Y-141443743D01*
X153610886Y-141443743D01*
X153610886Y-142709898D01*
X153081123Y-142709898D01*
X153081123Y-141443743D01*
X152653210Y-141443743D01*
X152653210Y-144445000D01*
G37*
D13*
X174057144Y-143673571D02*
X174000001Y-143745000D01*
X174000001Y-143745000D02*
X173828573Y-143816428D01*
X173828573Y-143816428D02*
X173714287Y-143816428D01*
X173714287Y-143816428D02*
X173542858Y-143745000D01*
X173542858Y-143745000D02*
X173428573Y-143602142D01*
X173428573Y-143602142D02*
X173371430Y-143459285D01*
X173371430Y-143459285D02*
X173314287Y-143173571D01*
X173314287Y-143173571D02*
X173314287Y-142959285D01*
X173314287Y-142959285D02*
X173371430Y-142673571D01*
X173371430Y-142673571D02*
X173428573Y-142530714D01*
X173428573Y-142530714D02*
X173542858Y-142387857D01*
X173542858Y-142387857D02*
X173714287Y-142316428D01*
X173714287Y-142316428D02*
X173828573Y-142316428D01*
X173828573Y-142316428D02*
X174000001Y-142387857D01*
X174000001Y-142387857D02*
X174057144Y-142459285D01*
X175257144Y-143673571D02*
X175200001Y-143745000D01*
X175200001Y-143745000D02*
X175028573Y-143816428D01*
X175028573Y-143816428D02*
X174914287Y-143816428D01*
X174914287Y-143816428D02*
X174742858Y-143745000D01*
X174742858Y-143745000D02*
X174628573Y-143602142D01*
X174628573Y-143602142D02*
X174571430Y-143459285D01*
X174571430Y-143459285D02*
X174514287Y-143173571D01*
X174514287Y-143173571D02*
X174514287Y-142959285D01*
X174514287Y-142959285D02*
X174571430Y-142673571D01*
X174571430Y-142673571D02*
X174628573Y-142530714D01*
X174628573Y-142530714D02*
X174742858Y-142387857D01*
X174742858Y-142387857D02*
X174914287Y-142316428D01*
X174914287Y-142316428D02*
X175028573Y-142316428D01*
X175028573Y-142316428D02*
X175200001Y-142387857D01*
X175200001Y-142387857D02*
X175257144Y-142459285D01*
X175771430Y-143245000D02*
X176685716Y-143245000D01*
X177657144Y-143030714D02*
X177828572Y-143102142D01*
X177828572Y-143102142D02*
X177885715Y-143173571D01*
X177885715Y-143173571D02*
X177942858Y-143316428D01*
X177942858Y-143316428D02*
X177942858Y-143530714D01*
X177942858Y-143530714D02*
X177885715Y-143673571D01*
X177885715Y-143673571D02*
X177828572Y-143745000D01*
X177828572Y-143745000D02*
X177714287Y-143816428D01*
X177714287Y-143816428D02*
X177257144Y-143816428D01*
X177257144Y-143816428D02*
X177257144Y-142316428D01*
X177257144Y-142316428D02*
X177657144Y-142316428D01*
X177657144Y-142316428D02*
X177771430Y-142387857D01*
X177771430Y-142387857D02*
X177828572Y-142459285D01*
X177828572Y-142459285D02*
X177885715Y-142602142D01*
X177885715Y-142602142D02*
X177885715Y-142745000D01*
X177885715Y-142745000D02*
X177828572Y-142887857D01*
X177828572Y-142887857D02*
X177771430Y-142959285D01*
X177771430Y-142959285D02*
X177657144Y-143030714D01*
X177657144Y-143030714D02*
X177257144Y-143030714D01*
X178685715Y-143102142D02*
X178685715Y-143816428D01*
X178285715Y-142316428D02*
X178685715Y-143102142D01*
X178685715Y-143102142D02*
X179085715Y-142316428D01*
X179485715Y-143245000D02*
X180400001Y-143245000D01*
X180971429Y-143816428D02*
X180971429Y-142316428D01*
X180971429Y-142316428D02*
X181657143Y-143816428D01*
X181657143Y-143816428D02*
X181657143Y-142316428D01*
X182914286Y-143673571D02*
X182857143Y-143745000D01*
X182857143Y-143745000D02*
X182685715Y-143816428D01*
X182685715Y-143816428D02*
X182571429Y-143816428D01*
X182571429Y-143816428D02*
X182400000Y-143745000D01*
X182400000Y-143745000D02*
X182285715Y-143602142D01*
X182285715Y-143602142D02*
X182228572Y-143459285D01*
X182228572Y-143459285D02*
X182171429Y-143173571D01*
X182171429Y-143173571D02*
X182171429Y-142959285D01*
X182171429Y-142959285D02*
X182228572Y-142673571D01*
X182228572Y-142673571D02*
X182285715Y-142530714D01*
X182285715Y-142530714D02*
X182400000Y-142387857D01*
X182400000Y-142387857D02*
X182571429Y-142316428D01*
X182571429Y-142316428D02*
X182685715Y-142316428D01*
X182685715Y-142316428D02*
X182857143Y-142387857D01*
X182857143Y-142387857D02*
X182914286Y-142459285D01*
X183428572Y-143245000D02*
X184342858Y-143245000D01*
X184857143Y-143745000D02*
X185028572Y-143816428D01*
X185028572Y-143816428D02*
X185314286Y-143816428D01*
X185314286Y-143816428D02*
X185428572Y-143745000D01*
X185428572Y-143745000D02*
X185485714Y-143673571D01*
X185485714Y-143673571D02*
X185542857Y-143530714D01*
X185542857Y-143530714D02*
X185542857Y-143387857D01*
X185542857Y-143387857D02*
X185485714Y-143245000D01*
X185485714Y-143245000D02*
X185428572Y-143173571D01*
X185428572Y-143173571D02*
X185314286Y-143102142D01*
X185314286Y-143102142D02*
X185085714Y-143030714D01*
X185085714Y-143030714D02*
X184971429Y-142959285D01*
X184971429Y-142959285D02*
X184914286Y-142887857D01*
X184914286Y-142887857D02*
X184857143Y-142745000D01*
X184857143Y-142745000D02*
X184857143Y-142602142D01*
X184857143Y-142602142D02*
X184914286Y-142459285D01*
X184914286Y-142459285D02*
X184971429Y-142387857D01*
X184971429Y-142387857D02*
X185085714Y-142316428D01*
X185085714Y-142316428D02*
X185371429Y-142316428D01*
X185371429Y-142316428D02*
X185542857Y-142387857D01*
X186000000Y-143387857D02*
X186571429Y-143387857D01*
X185885714Y-143816428D02*
X186285714Y-142316428D01*
X186285714Y-142316428D02*
X186685714Y-143816428D01*
X187942857Y-142459285D02*
X188000000Y-142387857D01*
X188000000Y-142387857D02*
X188114286Y-142316428D01*
X188114286Y-142316428D02*
X188400000Y-142316428D01*
X188400000Y-142316428D02*
X188514286Y-142387857D01*
X188514286Y-142387857D02*
X188571428Y-142459285D01*
X188571428Y-142459285D02*
X188628571Y-142602142D01*
X188628571Y-142602142D02*
X188628571Y-142745000D01*
X188628571Y-142745000D02*
X188571428Y-142959285D01*
X188571428Y-142959285D02*
X187885714Y-143816428D01*
X187885714Y-143816428D02*
X188628571Y-143816428D01*
X189371428Y-142316428D02*
X189485714Y-142316428D01*
X189485714Y-142316428D02*
X189600000Y-142387857D01*
X189600000Y-142387857D02*
X189657143Y-142459285D01*
X189657143Y-142459285D02*
X189714285Y-142602142D01*
X189714285Y-142602142D02*
X189771428Y-142887857D01*
X189771428Y-142887857D02*
X189771428Y-143245000D01*
X189771428Y-143245000D02*
X189714285Y-143530714D01*
X189714285Y-143530714D02*
X189657143Y-143673571D01*
X189657143Y-143673571D02*
X189600000Y-143745000D01*
X189600000Y-143745000D02*
X189485714Y-143816428D01*
X189485714Y-143816428D02*
X189371428Y-143816428D01*
X189371428Y-143816428D02*
X189257143Y-143745000D01*
X189257143Y-143745000D02*
X189200000Y-143673571D01*
X189200000Y-143673571D02*
X189142857Y-143530714D01*
X189142857Y-143530714D02*
X189085714Y-143245000D01*
X189085714Y-143245000D02*
X189085714Y-142887857D01*
X189085714Y-142887857D02*
X189142857Y-142602142D01*
X189142857Y-142602142D02*
X189200000Y-142459285D01*
X189200000Y-142459285D02*
X189257143Y-142387857D01*
X189257143Y-142387857D02*
X189371428Y-142316428D01*
X190228571Y-142459285D02*
X190285714Y-142387857D01*
X190285714Y-142387857D02*
X190400000Y-142316428D01*
X190400000Y-142316428D02*
X190685714Y-142316428D01*
X190685714Y-142316428D02*
X190800000Y-142387857D01*
X190800000Y-142387857D02*
X190857142Y-142459285D01*
X190857142Y-142459285D02*
X190914285Y-142602142D01*
X190914285Y-142602142D02*
X190914285Y-142745000D01*
X190914285Y-142745000D02*
X190857142Y-142959285D01*
X190857142Y-142959285D02*
X190171428Y-143816428D01*
X190171428Y-143816428D02*
X190914285Y-143816428D01*
X191314285Y-142316428D02*
X192057142Y-142316428D01*
X192057142Y-142316428D02*
X191657142Y-142887857D01*
X191657142Y-142887857D02*
X191828571Y-142887857D01*
X191828571Y-142887857D02*
X191942857Y-142959285D01*
X191942857Y-142959285D02*
X191999999Y-143030714D01*
X191999999Y-143030714D02*
X192057142Y-143173571D01*
X192057142Y-143173571D02*
X192057142Y-143530714D01*
X192057142Y-143530714D02*
X191999999Y-143673571D01*
X191999999Y-143673571D02*
X191942857Y-143745000D01*
X191942857Y-143745000D02*
X191828571Y-143816428D01*
X191828571Y-143816428D02*
X191485714Y-143816428D01*
X191485714Y-143816428D02*
X191371428Y-143745000D01*
X191371428Y-143745000D02*
X191314285Y-143673571D01*
X192571428Y-143673571D02*
X192628571Y-143745000D01*
X192628571Y-143745000D02*
X192571428Y-143816428D01*
X192571428Y-143816428D02*
X192514285Y-143745000D01*
X192514285Y-143745000D02*
X192571428Y-143673571D01*
X192571428Y-143673571D02*
X192571428Y-143816428D01*
X193371428Y-142316428D02*
X193485714Y-142316428D01*
X193485714Y-142316428D02*
X193600000Y-142387857D01*
X193600000Y-142387857D02*
X193657143Y-142459285D01*
X193657143Y-142459285D02*
X193714285Y-142602142D01*
X193714285Y-142602142D02*
X193771428Y-142887857D01*
X193771428Y-142887857D02*
X193771428Y-143245000D01*
X193771428Y-143245000D02*
X193714285Y-143530714D01*
X193714285Y-143530714D02*
X193657143Y-143673571D01*
X193657143Y-143673571D02*
X193600000Y-143745000D01*
X193600000Y-143745000D02*
X193485714Y-143816428D01*
X193485714Y-143816428D02*
X193371428Y-143816428D01*
X193371428Y-143816428D02*
X193257143Y-143745000D01*
X193257143Y-143745000D02*
X193200000Y-143673571D01*
X193200000Y-143673571D02*
X193142857Y-143530714D01*
X193142857Y-143530714D02*
X193085714Y-143245000D01*
X193085714Y-143245000D02*
X193085714Y-142887857D01*
X193085714Y-142887857D02*
X193142857Y-142602142D01*
X193142857Y-142602142D02*
X193200000Y-142459285D01*
X193200000Y-142459285D02*
X193257143Y-142387857D01*
X193257143Y-142387857D02*
X193371428Y-142316428D01*
X194800000Y-142816428D02*
X194800000Y-143816428D01*
X194514285Y-142245000D02*
X194228571Y-143316428D01*
X194228571Y-143316428D02*
X194971428Y-143316428D01*
X195428571Y-143673571D02*
X195485714Y-143745000D01*
X195485714Y-143745000D02*
X195428571Y-143816428D01*
X195428571Y-143816428D02*
X195371428Y-143745000D01*
X195371428Y-143745000D02*
X195428571Y-143673571D01*
X195428571Y-143673571D02*
X195428571Y-143816428D01*
X195942857Y-142459285D02*
X196000000Y-142387857D01*
X196000000Y-142387857D02*
X196114286Y-142316428D01*
X196114286Y-142316428D02*
X196400000Y-142316428D01*
X196400000Y-142316428D02*
X196514286Y-142387857D01*
X196514286Y-142387857D02*
X196571428Y-142459285D01*
X196571428Y-142459285D02*
X196628571Y-142602142D01*
X196628571Y-142602142D02*
X196628571Y-142745000D01*
X196628571Y-142745000D02*
X196571428Y-142959285D01*
X196571428Y-142959285D02*
X195885714Y-143816428D01*
X195885714Y-143816428D02*
X196628571Y-143816428D01*
X197028571Y-142316428D02*
X197771428Y-142316428D01*
X197771428Y-142316428D02*
X197371428Y-142887857D01*
X197371428Y-142887857D02*
X197542857Y-142887857D01*
X197542857Y-142887857D02*
X197657143Y-142959285D01*
X197657143Y-142959285D02*
X197714285Y-143030714D01*
X197714285Y-143030714D02*
X197771428Y-143173571D01*
X197771428Y-143173571D02*
X197771428Y-143530714D01*
X197771428Y-143530714D02*
X197714285Y-143673571D01*
X197714285Y-143673571D02*
X197657143Y-143745000D01*
X197657143Y-143745000D02*
X197542857Y-143816428D01*
X197542857Y-143816428D02*
X197200000Y-143816428D01*
X197200000Y-143816428D02*
X197085714Y-143745000D01*
X197085714Y-143745000D02*
X197028571Y-143673571D01*
D14*
X112285714Y-106530714D02*
X113714286Y-106530714D01*
X112000000Y-107387857D02*
X113000000Y-104387857D01*
X113000000Y-104387857D02*
X114000000Y-107387857D01*
X143214285Y-105816428D02*
X143642857Y-105959285D01*
X143642857Y-105959285D02*
X143785714Y-106102142D01*
X143785714Y-106102142D02*
X143928571Y-106387857D01*
X143928571Y-106387857D02*
X143928571Y-106816428D01*
X143928571Y-106816428D02*
X143785714Y-107102142D01*
X143785714Y-107102142D02*
X143642857Y-107245000D01*
X143642857Y-107245000D02*
X143357142Y-107387857D01*
X143357142Y-107387857D02*
X142214285Y-107387857D01*
X142214285Y-107387857D02*
X142214285Y-104387857D01*
X142214285Y-104387857D02*
X143214285Y-104387857D01*
X143214285Y-104387857D02*
X143500000Y-104530714D01*
X143500000Y-104530714D02*
X143642857Y-104673571D01*
X143642857Y-104673571D02*
X143785714Y-104959285D01*
X143785714Y-104959285D02*
X143785714Y-105245000D01*
X143785714Y-105245000D02*
X143642857Y-105530714D01*
X143642857Y-105530714D02*
X143500000Y-105673571D01*
X143500000Y-105673571D02*
X143214285Y-105816428D01*
X143214285Y-105816428D02*
X142214285Y-105816428D01*
D15*
X102285714Y-143530714D02*
X103000000Y-143530714D01*
X102142857Y-144387857D02*
X102642857Y-141387857D01*
X102642857Y-141387857D02*
X103142857Y-144387857D01*
X103642856Y-142387857D02*
X103642856Y-144387857D01*
X103642856Y-142673571D02*
X103714285Y-142530714D01*
X103714285Y-142530714D02*
X103857142Y-142387857D01*
X103857142Y-142387857D02*
X104071428Y-142387857D01*
X104071428Y-142387857D02*
X104214285Y-142530714D01*
X104214285Y-142530714D02*
X104285714Y-142816428D01*
X104285714Y-142816428D02*
X104285714Y-144387857D01*
X104785714Y-142387857D02*
X105357142Y-142387857D01*
X104999999Y-141387857D02*
X104999999Y-143959285D01*
X104999999Y-143959285D02*
X105071428Y-144245000D01*
X105071428Y-144245000D02*
X105214285Y-144387857D01*
X105214285Y-144387857D02*
X105357142Y-144387857D01*
X106428571Y-144245000D02*
X106285714Y-144387857D01*
X106285714Y-144387857D02*
X106000000Y-144387857D01*
X106000000Y-144387857D02*
X105857142Y-144245000D01*
X105857142Y-144245000D02*
X105785714Y-143959285D01*
X105785714Y-143959285D02*
X105785714Y-142816428D01*
X105785714Y-142816428D02*
X105857142Y-142530714D01*
X105857142Y-142530714D02*
X106000000Y-142387857D01*
X106000000Y-142387857D02*
X106285714Y-142387857D01*
X106285714Y-142387857D02*
X106428571Y-142530714D01*
X106428571Y-142530714D02*
X106500000Y-142816428D01*
X106500000Y-142816428D02*
X106500000Y-143102142D01*
X106500000Y-143102142D02*
X105785714Y-143387857D01*
X107142856Y-142387857D02*
X107142856Y-144387857D01*
X107142856Y-142673571D02*
X107214285Y-142530714D01*
X107214285Y-142530714D02*
X107357142Y-142387857D01*
X107357142Y-142387857D02*
X107571428Y-142387857D01*
X107571428Y-142387857D02*
X107714285Y-142530714D01*
X107714285Y-142530714D02*
X107785714Y-142816428D01*
X107785714Y-142816428D02*
X107785714Y-144387857D01*
X108499999Y-142387857D02*
X108499999Y-144387857D01*
X108499999Y-142673571D02*
X108571428Y-142530714D01*
X108571428Y-142530714D02*
X108714285Y-142387857D01*
X108714285Y-142387857D02*
X108928571Y-142387857D01*
X108928571Y-142387857D02*
X109071428Y-142530714D01*
X109071428Y-142530714D02*
X109142857Y-142816428D01*
X109142857Y-142816428D02*
X109142857Y-144387857D01*
X110500000Y-144387857D02*
X110500000Y-142816428D01*
X110500000Y-142816428D02*
X110428571Y-142530714D01*
X110428571Y-142530714D02*
X110285714Y-142387857D01*
X110285714Y-142387857D02*
X110000000Y-142387857D01*
X110000000Y-142387857D02*
X109857142Y-142530714D01*
X110500000Y-144245000D02*
X110357142Y-144387857D01*
X110357142Y-144387857D02*
X110000000Y-144387857D01*
X110000000Y-144387857D02*
X109857142Y-144245000D01*
X109857142Y-144245000D02*
X109785714Y-143959285D01*
X109785714Y-143959285D02*
X109785714Y-143673571D01*
X109785714Y-143673571D02*
X109857142Y-143387857D01*
X109857142Y-143387857D02*
X110000000Y-143245000D01*
X110000000Y-143245000D02*
X110357142Y-143245000D01*
X110357142Y-143245000D02*
X110500000Y-143102142D01*
X112357142Y-142816428D02*
X112857142Y-142816428D01*
X113071428Y-144387857D02*
X112357142Y-144387857D01*
X112357142Y-144387857D02*
X112357142Y-141387857D01*
X112357142Y-141387857D02*
X113071428Y-141387857D01*
X113714285Y-142387857D02*
X113714285Y-144387857D01*
X113714285Y-142673571D02*
X113785714Y-142530714D01*
X113785714Y-142530714D02*
X113928571Y-142387857D01*
X113928571Y-142387857D02*
X114142857Y-142387857D01*
X114142857Y-142387857D02*
X114285714Y-142530714D01*
X114285714Y-142530714D02*
X114357143Y-142816428D01*
X114357143Y-142816428D02*
X114357143Y-144387857D01*
X114857143Y-142387857D02*
X115428571Y-142387857D01*
X115071428Y-141387857D02*
X115071428Y-143959285D01*
X115071428Y-143959285D02*
X115142857Y-144245000D01*
X115142857Y-144245000D02*
X115285714Y-144387857D01*
X115285714Y-144387857D02*
X115428571Y-144387857D01*
X115928571Y-144387857D02*
X115928571Y-142387857D01*
X115928571Y-142959285D02*
X116000000Y-142673571D01*
X116000000Y-142673571D02*
X116071429Y-142530714D01*
X116071429Y-142530714D02*
X116214286Y-142387857D01*
X116214286Y-142387857D02*
X116357143Y-142387857D01*
X117500000Y-144387857D02*
X117500000Y-142816428D01*
X117500000Y-142816428D02*
X117428571Y-142530714D01*
X117428571Y-142530714D02*
X117285714Y-142387857D01*
X117285714Y-142387857D02*
X117000000Y-142387857D01*
X117000000Y-142387857D02*
X116857142Y-142530714D01*
X117500000Y-144245000D02*
X117357142Y-144387857D01*
X117357142Y-144387857D02*
X117000000Y-144387857D01*
X117000000Y-144387857D02*
X116857142Y-144245000D01*
X116857142Y-144245000D02*
X116785714Y-143959285D01*
X116785714Y-143959285D02*
X116785714Y-143673571D01*
X116785714Y-143673571D02*
X116857142Y-143387857D01*
X116857142Y-143387857D02*
X117000000Y-143245000D01*
X117000000Y-143245000D02*
X117357142Y-143245000D01*
X117357142Y-143245000D02*
X117500000Y-143102142D01*
X118214285Y-142387857D02*
X118214285Y-144387857D01*
X118214285Y-142673571D02*
X118285714Y-142530714D01*
X118285714Y-142530714D02*
X118428571Y-142387857D01*
X118428571Y-142387857D02*
X118642857Y-142387857D01*
X118642857Y-142387857D02*
X118785714Y-142530714D01*
X118785714Y-142530714D02*
X118857143Y-142816428D01*
X118857143Y-142816428D02*
X118857143Y-144387857D01*
X120214286Y-144245000D02*
X120071428Y-144387857D01*
X120071428Y-144387857D02*
X119785714Y-144387857D01*
X119785714Y-144387857D02*
X119642857Y-144245000D01*
X119642857Y-144245000D02*
X119571428Y-144102142D01*
X119571428Y-144102142D02*
X119500000Y-143816428D01*
X119500000Y-143816428D02*
X119500000Y-142959285D01*
X119500000Y-142959285D02*
X119571428Y-142673571D01*
X119571428Y-142673571D02*
X119642857Y-142530714D01*
X119642857Y-142530714D02*
X119785714Y-142387857D01*
X119785714Y-142387857D02*
X120071428Y-142387857D01*
X120071428Y-142387857D02*
X120214286Y-142530714D01*
X121428571Y-144245000D02*
X121285714Y-144387857D01*
X121285714Y-144387857D02*
X121000000Y-144387857D01*
X121000000Y-144387857D02*
X120857142Y-144245000D01*
X120857142Y-144245000D02*
X120785714Y-143959285D01*
X120785714Y-143959285D02*
X120785714Y-142816428D01*
X120785714Y-142816428D02*
X120857142Y-142530714D01*
X120857142Y-142530714D02*
X121000000Y-142387857D01*
X121000000Y-142387857D02*
X121285714Y-142387857D01*
X121285714Y-142387857D02*
X121428571Y-142530714D01*
X121428571Y-142530714D02*
X121500000Y-142816428D01*
X121500000Y-142816428D02*
X121500000Y-143102142D01*
X121500000Y-143102142D02*
X120785714Y-143387857D01*
X123285713Y-144387857D02*
X123285713Y-141387857D01*
X123285713Y-141387857D02*
X123857142Y-141387857D01*
X123857142Y-141387857D02*
X123999999Y-141530714D01*
X123999999Y-141530714D02*
X124071428Y-141673571D01*
X124071428Y-141673571D02*
X124142856Y-141959285D01*
X124142856Y-141959285D02*
X124142856Y-142387857D01*
X124142856Y-142387857D02*
X124071428Y-142673571D01*
X124071428Y-142673571D02*
X123999999Y-142816428D01*
X123999999Y-142816428D02*
X123857142Y-142959285D01*
X123857142Y-142959285D02*
X123285713Y-142959285D01*
X125428571Y-144387857D02*
X125428571Y-142816428D01*
X125428571Y-142816428D02*
X125357142Y-142530714D01*
X125357142Y-142530714D02*
X125214285Y-142387857D01*
X125214285Y-142387857D02*
X124928571Y-142387857D01*
X124928571Y-142387857D02*
X124785713Y-142530714D01*
X125428571Y-144245000D02*
X125285713Y-144387857D01*
X125285713Y-144387857D02*
X124928571Y-144387857D01*
X124928571Y-144387857D02*
X124785713Y-144245000D01*
X124785713Y-144245000D02*
X124714285Y-143959285D01*
X124714285Y-143959285D02*
X124714285Y-143673571D01*
X124714285Y-143673571D02*
X124785713Y-143387857D01*
X124785713Y-143387857D02*
X124928571Y-143245000D01*
X124928571Y-143245000D02*
X125285713Y-143245000D01*
X125285713Y-143245000D02*
X125428571Y-143102142D01*
X126142856Y-142387857D02*
X126142856Y-144387857D01*
X126142856Y-142673571D02*
X126214285Y-142530714D01*
X126214285Y-142530714D02*
X126357142Y-142387857D01*
X126357142Y-142387857D02*
X126571428Y-142387857D01*
X126571428Y-142387857D02*
X126714285Y-142530714D01*
X126714285Y-142530714D02*
X126785714Y-142816428D01*
X126785714Y-142816428D02*
X126785714Y-144387857D01*
X128071428Y-144245000D02*
X127928571Y-144387857D01*
X127928571Y-144387857D02*
X127642857Y-144387857D01*
X127642857Y-144387857D02*
X127499999Y-144245000D01*
X127499999Y-144245000D02*
X127428571Y-143959285D01*
X127428571Y-143959285D02*
X127428571Y-142816428D01*
X127428571Y-142816428D02*
X127499999Y-142530714D01*
X127499999Y-142530714D02*
X127642857Y-142387857D01*
X127642857Y-142387857D02*
X127928571Y-142387857D01*
X127928571Y-142387857D02*
X128071428Y-142530714D01*
X128071428Y-142530714D02*
X128142857Y-142816428D01*
X128142857Y-142816428D02*
X128142857Y-143102142D01*
X128142857Y-143102142D02*
X127428571Y-143387857D01*
X128999999Y-144387857D02*
X128857142Y-144245000D01*
X128857142Y-144245000D02*
X128785713Y-143959285D01*
X128785713Y-143959285D02*
X128785713Y-141387857D01*
D14*
X173928571Y-107102142D02*
X173785714Y-107245000D01*
X173785714Y-107245000D02*
X173357142Y-107387857D01*
X173357142Y-107387857D02*
X173071428Y-107387857D01*
X173071428Y-107387857D02*
X172642857Y-107245000D01*
X172642857Y-107245000D02*
X172357142Y-106959285D01*
X172357142Y-106959285D02*
X172214285Y-106673571D01*
X172214285Y-106673571D02*
X172071428Y-106102142D01*
X172071428Y-106102142D02*
X172071428Y-105673571D01*
X172071428Y-105673571D02*
X172214285Y-105102142D01*
X172214285Y-105102142D02*
X172357142Y-104816428D01*
X172357142Y-104816428D02*
X172642857Y-104530714D01*
X172642857Y-104530714D02*
X173071428Y-104387857D01*
X173071428Y-104387857D02*
X173357142Y-104387857D01*
X173357142Y-104387857D02*
X173785714Y-104530714D01*
X173785714Y-104530714D02*
X173928571Y-104673571D01*
M02*
