%TF.GenerationSoftware,KiCad,Pcbnew,7.0.1-0*%
%TF.CreationDate,2023-04-27T22:29:58+08:00*%
%TF.ProjectId,antpanel,616e7470-616e-4656-9c2e-6b696361645f,Alpha 1*%
%TF.SameCoordinates,Original*%
%TF.FileFunction,Soldermask,Top*%
%TF.FilePolarity,Negative*%
%FSLAX46Y46*%
G04 Gerber Fmt 4.6, Leading zero omitted, Abs format (unit mm)*
G04 Created by KiCad (PCBNEW 7.0.1-0) date 2023-04-27 22:29:58*
%MOMM*%
%LPD*%
G01*
G04 APERTURE LIST*
%ADD10C,0.100000*%
%ADD11C,4.050000*%
%ADD12C,0.150000*%
%ADD13C,0.800000*%
%ADD14C,6.400000*%
G04 APERTURE END LIST*
D10*
X193000000Y-112000000D02*
X193000000Y-134000000D01*
X191000000Y-136000000D01*
X169000000Y-136000000D01*
X167000000Y-134000000D01*
X167000000Y-112000000D01*
X169000000Y-110000000D01*
X191000000Y-110000000D01*
X193000000Y-112000000D01*
G36*
X193000000Y-112000000D02*
G01*
X193000000Y-134000000D01*
X191000000Y-136000000D01*
X169000000Y-136000000D01*
X167000000Y-134000000D01*
X167000000Y-112000000D01*
X169000000Y-110000000D01*
X191000000Y-110000000D01*
X193000000Y-112000000D01*
G37*
X163000000Y-112000000D02*
X163000000Y-134000000D01*
X161000000Y-136000000D01*
X139000000Y-136000000D01*
X137000000Y-134000000D01*
X137000000Y-112000000D01*
X139000000Y-110000000D01*
X161000000Y-110000000D01*
X163000000Y-112000000D01*
G36*
X163000000Y-112000000D02*
G01*
X163000000Y-134000000D01*
X161000000Y-136000000D01*
X139000000Y-136000000D01*
X137000000Y-134000000D01*
X137000000Y-112000000D01*
X139000000Y-110000000D01*
X161000000Y-110000000D01*
X163000000Y-112000000D01*
G37*
D11*
X198025000Y-95000000D02*
G75*
G03*
X198025000Y-95000000I-2025000J0D01*
G01*
D10*
X190000000Y-55000000D02*
X176000000Y-55000000D01*
X176000000Y-62000000D01*
X168000000Y-62000000D01*
X168000000Y-55000000D01*
X154000000Y-55000000D01*
X154000000Y-50000000D01*
X190000000Y-50000000D01*
X190000000Y-55000000D01*
G36*
X190000000Y-55000000D02*
G01*
X176000000Y-55000000D01*
X176000000Y-62000000D01*
X168000000Y-62000000D01*
X168000000Y-55000000D01*
X154000000Y-55000000D01*
X154000000Y-50000000D01*
X190000000Y-50000000D01*
X190000000Y-55000000D01*
G37*
D11*
X109025000Y-95000000D02*
G75*
G03*
X109025000Y-95000000I-2025000J0D01*
G01*
D10*
X170000000Y-99000000D02*
X160000000Y-99000000D01*
X160000000Y-63000000D01*
X170000000Y-63000000D01*
X170000000Y-99000000D01*
G36*
X170000000Y-99000000D02*
G01*
X160000000Y-99000000D01*
X160000000Y-63000000D01*
X170000000Y-63000000D01*
X170000000Y-99000000D01*
G37*
D12*
X197000000Y-85000000D02*
X100000000Y-85000000D01*
X100000000Y-77000000D01*
X197000000Y-77000000D01*
X197000000Y-85000000D01*
G36*
X197000000Y-85000000D02*
G01*
X100000000Y-85000000D01*
X100000000Y-77000000D01*
X197000000Y-77000000D01*
X197000000Y-85000000D01*
G37*
D10*
X192000000Y-67000000D02*
X200000000Y-67000000D01*
X200000000Y-95000000D01*
X192000000Y-95000000D01*
X192000000Y-67000000D01*
G36*
X192000000Y-67000000D02*
G01*
X200000000Y-67000000D01*
X200000000Y-95000000D01*
X192000000Y-95000000D01*
X192000000Y-67000000D01*
G37*
D11*
X109025000Y-67000000D02*
G75*
G03*
X109025000Y-67000000I-2025000J0D01*
G01*
D10*
X170000000Y-148400000D02*
X160000000Y-148400000D01*
X160000000Y-138000000D01*
X170000000Y-138000000D01*
X170000000Y-148400000D01*
G36*
X170000000Y-148400000D02*
G01*
X160000000Y-148400000D01*
X160000000Y-138000000D01*
X170000000Y-138000000D01*
X170000000Y-148400000D01*
G37*
D11*
X198025000Y-67000000D02*
G75*
G03*
X198025000Y-67000000I-2025000J0D01*
G01*
D10*
X133000000Y-112000000D02*
X133000000Y-134000000D01*
X131000000Y-136000000D01*
X109000000Y-136000000D01*
X107000000Y-134000000D01*
X107000000Y-112000000D01*
X109000000Y-110000000D01*
X131000000Y-110000000D01*
X133000000Y-112000000D01*
G36*
X133000000Y-112000000D02*
G01*
X133000000Y-134000000D01*
X131000000Y-136000000D01*
X109000000Y-136000000D01*
X107000000Y-134000000D01*
X107000000Y-112000000D01*
X109000000Y-110000000D01*
X131000000Y-110000000D01*
X133000000Y-112000000D01*
G37*
X100000000Y-63000000D02*
X107000000Y-63000000D01*
X107000000Y-99000000D01*
X100000000Y-99000000D01*
X100000000Y-63000000D01*
G36*
X100000000Y-63000000D02*
G01*
X107000000Y-63000000D01*
X107000000Y-99000000D01*
X100000000Y-99000000D01*
X100000000Y-63000000D01*
G37*
X140000000Y-148400000D02*
X130000000Y-148400000D01*
X130000000Y-138000000D01*
X140000000Y-138000000D01*
X140000000Y-148400000D01*
G36*
X140000000Y-148400000D02*
G01*
X130000000Y-148400000D01*
X130000000Y-138000000D01*
X140000000Y-138000000D01*
X140000000Y-148400000D01*
G37*
X100000000Y-145400000D02*
X200000000Y-145400000D01*
X200000000Y-150000000D01*
X100000000Y-150000000D01*
X100000000Y-145400000D01*
G36*
X100000000Y-145400000D02*
G01*
X200000000Y-145400000D01*
X200000000Y-150000000D01*
X100000000Y-150000000D01*
X100000000Y-145400000D01*
G37*
X146000000Y-55000000D02*
X131800000Y-55000000D01*
X131800000Y-62000000D01*
X124200000Y-62000000D01*
X124200000Y-55000000D01*
X110000000Y-55000000D01*
X110000000Y-50400000D01*
X146000000Y-50400000D01*
X146000000Y-55000000D01*
G36*
X146000000Y-55000000D02*
G01*
X131800000Y-55000000D01*
X131800000Y-62000000D01*
X124200000Y-62000000D01*
X124200000Y-55000000D01*
X110000000Y-55000000D01*
X110000000Y-50400000D01*
X146000000Y-50400000D01*
X146000000Y-55000000D01*
G37*
X140000000Y-99000000D02*
X130000000Y-99000000D01*
X130000000Y-63000000D01*
X140000000Y-63000000D01*
X140000000Y-99000000D01*
G36*
X140000000Y-99000000D02*
G01*
X130000000Y-99000000D01*
X130000000Y-63000000D01*
X140000000Y-63000000D01*
X140000000Y-99000000D01*
G37*
D13*
%TO.C,H4*%
X193600000Y-95000000D03*
X194302944Y-93302944D03*
X194302944Y-96697056D03*
X196000000Y-92600000D03*
D14*
X196000000Y-95000000D03*
D13*
X196000000Y-97400000D03*
X197697056Y-93302944D03*
X197697056Y-96697056D03*
X198400000Y-95000000D03*
%TD*%
%TO.C,H2*%
X193600000Y-67000000D03*
X194302944Y-65302944D03*
X194302944Y-68697056D03*
X196000000Y-64600000D03*
D14*
X196000000Y-67000000D03*
D13*
X196000000Y-69400000D03*
X197697056Y-65302944D03*
X197697056Y-68697056D03*
X198400000Y-67000000D03*
%TD*%
%TO.C,H3*%
X104600000Y-95000000D03*
X105302944Y-93302944D03*
X105302944Y-96697056D03*
X107000000Y-92600000D03*
D14*
X107000000Y-95000000D03*
D13*
X107000000Y-97400000D03*
X108697056Y-93302944D03*
X108697056Y-96697056D03*
X109400000Y-95000000D03*
%TD*%
%TO.C,H1*%
X104600000Y-67000000D03*
X105302944Y-65302944D03*
X105302944Y-68697056D03*
X107000000Y-64600000D03*
D14*
X107000000Y-67000000D03*
D13*
X107000000Y-69400000D03*
X108697056Y-65302944D03*
X108697056Y-68697056D03*
X109400000Y-67000000D03*
%TD*%
M02*
