M48
; DRILL file {KiCad 7.0.1-0} date 2023 April 27, Thursday 22:29:56
; FORMAT={-:-/ absolute / inch / decimal}
; #@! TF.CreationDate,2023-04-27T22:29:56+08:00
; #@! TF.GenerationSoftware,Kicad,Pcbnew,7.0.1-0
; #@! TF.FileFunction,Plated,1,2,PTH
FMAT,2
INCH
; #@! TA.AperFunction,Plated,PTH,ViaDrill
T1C0.0157
; #@! TA.AperFunction,Plated,PTH,ComponentDrill
T2C0.0197
; #@! TA.AperFunction,Plated,PTH,ComponentDrill
T3C0.1260
%
G90
G05
T1
X3.9764Y-2.9921
X3.9764Y-3.189
X3.9764Y-3.3858
X4.0157Y-3.0709
X4.0157Y-3.3071
X4.0551Y-2.874
X4.0551Y-3.5039
X4.0551Y-5.7874
X4.1339Y-2.7953
X4.1339Y-2.9921
X4.1339Y-3.189
X4.1339Y-3.3858
X4.1339Y-3.5827
X4.1339Y-4.1339
X4.1339Y-4.3307
X4.1339Y-4.5276
X4.1339Y-4.7244
X4.1339Y-4.9213
X4.1339Y-5.1181
X4.1339Y-5.315
X4.1339Y-5.5118
X4.1339Y-5.7087
X4.2126Y-3.0709
X4.2126Y-3.3071
X4.252Y-5.7874
X4.3307Y-2.7953
X4.3307Y-2.9921
X4.3307Y-3.3858
X4.3307Y-3.5827
X4.3307Y-4.0157
X4.3307Y-4.3307
X4.3307Y-4.5669
X4.3307Y-4.7244
X4.3307Y-4.9213
X4.3307Y-5.0787
X4.3307Y-5.315
X4.3307Y-5.5118
X4.3307Y-5.7087
X4.3701Y-2.126
X4.4094Y-2.0866
X4.4094Y-3.0709
X4.4094Y-3.3071
X4.4488Y-5.7874
X4.4882Y-2.126
X4.4882Y-4.4882
X4.4882Y-5.1969
X4.5276Y-2.5984
X4.5276Y-2.7953
X4.5276Y-2.9921
X4.5276Y-3.3858
X4.5276Y-3.5827
X4.5276Y-3.7795
X4.5276Y-4.0157
X4.5276Y-4.3307
X4.5276Y-5.315
X4.5276Y-5.5118
X4.5276Y-5.7087
X4.5669Y-2.0866
X4.6063Y-3.0709
X4.6063Y-3.3071
X4.6457Y-2.126
X4.6457Y-5.7874
X4.7244Y-2.0866
X4.7244Y-2.5984
X4.7244Y-2.7953
X4.7244Y-2.9921
X4.7244Y-3.3858
X4.7244Y-3.5827
X4.7244Y-3.7795
X4.7244Y-4.0157
X4.7244Y-4.3307
X4.7244Y-4.4488
X4.7244Y-5.2362
X4.7244Y-5.315
X4.7244Y-5.5118
X4.7244Y-5.7087
X4.8031Y-2.126
X4.8031Y-3.0709
X4.8031Y-3.3071
X4.8425Y-5.7874
X4.8819Y-2.0866
X4.9213Y-2.5984
X4.9213Y-2.7953
X4.9213Y-2.9921
X4.9213Y-3.3858
X4.9213Y-3.5827
X4.9213Y-3.7795
X4.9213Y-4.0157
X4.9213Y-4.3307
X4.9213Y-5.315
X4.9213Y-5.5118
X4.9213Y-5.7087
X4.9606Y-2.126
X4.9606Y-2.2441
X4.9606Y-2.3622
X4.9606Y-4.4882
X4.9606Y-5.1969
X5.0Y-3.0709
X5.0Y-3.3071
X5.0394Y-2.0079
X5.0394Y-2.0866
X5.0394Y-2.1654
X5.0394Y-5.7874
X5.1181Y-2.126
X5.1181Y-2.2441
X5.1181Y-2.3622
X5.1181Y-2.5984
X5.1181Y-2.7953
X5.1181Y-2.9921
X5.1181Y-3.3858
X5.1181Y-3.5827
X5.1181Y-3.7795
X5.1181Y-4.0157
X5.1181Y-4.3307
X5.1181Y-4.5669
X5.1181Y-4.7244
X5.1181Y-4.9213
X5.1181Y-5.0787
X5.1181Y-5.315
X5.1181Y-5.5118
X5.1181Y-5.7087
X5.1969Y-2.0866
X5.1969Y-2.6772
X5.1969Y-2.874
X5.1969Y-3.0709
X5.1969Y-3.3071
X5.1969Y-3.5039
X5.1969Y-3.7008
X5.1969Y-5.5906
X5.1969Y-5.7874
X5.2756Y-2.126
X5.315Y-2.5984
X5.315Y-2.6772
X5.315Y-3.7008
X5.315Y-3.7795
X5.315Y-4.1339
X5.315Y-4.3307
X5.315Y-4.5276
X5.315Y-4.7244
X5.315Y-4.9213
X5.315Y-5.1181
X5.315Y-5.315
X5.315Y-5.5118
X5.3543Y-2.0866
X5.4331Y-2.126
X5.4331Y-2.6772
X5.4331Y-2.874
X5.4331Y-3.0709
X5.4331Y-3.189
X5.4331Y-3.3071
X5.4331Y-3.5039
X5.4331Y-3.7008
X5.4331Y-5.5906
X5.4331Y-5.7874
X5.5118Y-2.0866
X5.5118Y-2.5984
X5.5118Y-2.7953
X5.5118Y-2.9921
X5.5118Y-3.3858
X5.5118Y-3.5827
X5.5118Y-3.7795
X5.5118Y-4.0157
X5.5118Y-4.3307
X5.5118Y-4.5669
X5.5118Y-4.7244
X5.5118Y-4.9213
X5.5118Y-5.0787
X5.5118Y-5.315
X5.5118Y-5.5118
X5.5118Y-5.7087
X5.5906Y-2.126
X5.5906Y-3.0709
X5.5906Y-3.189
X5.5906Y-3.3071
X5.5906Y-5.7874
X5.6693Y-2.0866
X5.6693Y-4.4882
X5.6693Y-5.1969
X5.7087Y-2.5984
X5.7087Y-2.7953
X5.7087Y-2.9921
X5.7087Y-3.3858
X5.7087Y-3.5827
X5.7087Y-3.7795
X5.7087Y-4.0157
X5.7087Y-4.3307
X5.7087Y-5.315
X5.7087Y-5.5118
X5.7087Y-5.7087
X5.7874Y-3.0709
X5.7874Y-3.189
X5.7874Y-3.3071
X5.7874Y-5.7874
X5.9055Y-2.5984
X5.9055Y-2.7953
X5.9055Y-2.9921
X5.9055Y-3.3858
X5.9055Y-3.5827
X5.9055Y-3.7795
X5.9055Y-4.0157
X5.9055Y-4.3307
X5.9055Y-4.4488
X5.9055Y-5.2362
X5.9055Y-5.315
X5.9055Y-5.5118
X5.9055Y-5.7087
X5.9843Y-3.0709
X5.9843Y-3.189
X5.9843Y-3.3071
X5.9843Y-5.7874
X6.1024Y-2.5984
X6.1024Y-2.7953
X6.1024Y-2.9921
X6.1024Y-3.3858
X6.1024Y-3.5827
X6.1024Y-3.7795
X6.1024Y-4.0157
X6.1024Y-4.3307
X6.1024Y-5.315
X6.1024Y-5.5118
X6.1024Y-5.7087
X6.1417Y-2.0866
X6.1417Y-4.4882
X6.1417Y-5.1969
X6.1811Y-3.0709
X6.1811Y-3.189
X6.1811Y-3.3071
X6.1811Y-5.7874
X6.2205Y-2.126
X6.2992Y-2.0866
X6.2992Y-2.5984
X6.2992Y-2.7953
X6.2992Y-2.9921
X6.2992Y-3.3858
X6.2992Y-3.5827
X6.2992Y-3.7795
X6.2992Y-4.0157
X6.2992Y-4.3307
X6.2992Y-4.5669
X6.2992Y-4.7244
X6.2992Y-4.9213
X6.2992Y-5.0787
X6.2992Y-5.315
X6.2992Y-5.5118
X6.2992Y-5.7087
X6.378Y-2.126
X6.378Y-2.6772
X6.378Y-2.874
X6.378Y-3.0709
X6.378Y-3.189
X6.378Y-3.3071
X6.378Y-3.5039
X6.378Y-3.7008
X6.378Y-5.5906
X6.378Y-5.7874
X6.4567Y-2.0866
X6.4961Y-2.5984
X6.4961Y-2.6772
X6.4961Y-3.7008
X6.4961Y-3.7795
X6.4961Y-4.1339
X6.4961Y-4.3307
X6.4961Y-4.5276
X6.4961Y-4.7244
X6.4961Y-4.9213
X6.4961Y-5.1181
X6.4961Y-5.315
X6.4961Y-5.5118
X6.5354Y-2.126
X6.6142Y-2.0866
X6.6142Y-2.6772
X6.6142Y-2.874
X6.6142Y-3.0709
X6.6142Y-3.3071
X6.6142Y-3.5039
X6.6142Y-3.7008
X6.6142Y-5.5906
X6.6142Y-5.7874
X6.6929Y-2.126
X6.6929Y-2.2441
X6.6929Y-2.3622
X6.6929Y-2.5984
X6.6929Y-2.7953
X6.6929Y-2.9921
X6.6929Y-3.3858
X6.6929Y-3.5827
X6.6929Y-3.7795
X6.6929Y-4.0157
X6.6929Y-4.3307
X6.6929Y-4.5669
X6.6929Y-4.7244
X6.6929Y-4.9213
X6.6929Y-5.0787
X6.6929Y-5.315
X6.6929Y-5.5118
X6.6929Y-5.7087
X6.7717Y-2.0079
X6.7717Y-2.0866
X6.7717Y-2.1654
X6.7717Y-3.0709
X6.7717Y-3.3071
X6.811Y-5.7874
X6.8504Y-2.126
X6.8504Y-2.2441
X6.8504Y-2.3622
X6.8504Y-4.4882
X6.8504Y-5.1969
X6.8898Y-2.5984
X6.8898Y-2.7953
X6.8898Y-2.9921
X6.8898Y-3.3858
X6.8898Y-3.5827
X6.8898Y-3.7795
X6.8898Y-4.0157
X6.8898Y-4.3307
X6.8898Y-5.315
X6.8898Y-5.5118
X6.8898Y-5.7087
X6.9291Y-2.0866
X6.9685Y-3.0709
X6.9685Y-3.3071
X7.0079Y-2.126
X7.0079Y-5.7874
X7.0866Y-2.0866
X7.0866Y-2.5984
X7.0866Y-2.7953
X7.0866Y-2.9921
X7.0866Y-3.3858
X7.0866Y-3.5827
X7.0866Y-3.7795
X7.0866Y-4.0157
X7.0866Y-4.3307
X7.0866Y-4.4488
X7.0866Y-5.2362
X7.0866Y-5.315
X7.0866Y-5.5118
X7.0866Y-5.7087
X7.1654Y-2.126
X7.1654Y-3.0709
X7.1654Y-3.3071
X7.2047Y-5.7874
X7.2441Y-2.0866
X7.2835Y-2.5984
X7.2835Y-2.7953
X7.2835Y-2.9921
X7.2835Y-3.3858
X7.2835Y-3.5827
X7.2835Y-3.7795
X7.2835Y-4.0157
X7.2835Y-4.3307
X7.2835Y-5.315
X7.2835Y-5.5118
X7.2835Y-5.7087
X7.3228Y-2.126
X7.3228Y-4.4882
X7.3228Y-5.1969
X7.3622Y-3.0709
X7.3622Y-3.3071
X7.4016Y-2.0866
X7.4016Y-5.7874
X7.4803Y-2.5984
X7.4803Y-2.7953
X7.4803Y-2.9921
X7.4803Y-3.3858
X7.4803Y-3.5827
X7.4803Y-3.7795
X7.4803Y-4.0157
X7.4803Y-4.3307
X7.4803Y-4.5669
X7.4803Y-4.7244
X7.4803Y-4.9213
X7.4803Y-5.0787
X7.4803Y-5.315
X7.4803Y-5.5118
X7.4803Y-5.7087
X7.5591Y-3.0709
X7.5591Y-3.3071
X7.5984Y-5.7874
X7.6772Y-2.9921
X7.6772Y-3.189
X7.6772Y-3.3858
X7.6772Y-3.5827
X7.6772Y-4.1339
X7.6772Y-4.3307
X7.6772Y-4.5276
X7.6772Y-4.7244
X7.6772Y-4.9213
X7.6772Y-5.1575
X7.6772Y-5.315
X7.6772Y-5.5118
X7.6772Y-5.7087
X7.7953Y-5.7874
T2
X4.1181Y-2.6378
X4.1181Y-3.7402
X4.1458Y-2.571
X4.1458Y-2.7046
X4.1458Y-3.6733
X4.1458Y-3.807
X4.2126Y-2.5433
X4.2126Y-2.7323
X4.2126Y-3.6457
X4.2126Y-3.8346
X4.2794Y-2.571
X4.2794Y-2.7046
X4.2794Y-3.6733
X4.2794Y-3.807
X4.3071Y-2.6378
X4.3071Y-3.7402
X7.622Y-2.6378
X7.622Y-3.7402
X7.6497Y-2.571
X7.6497Y-2.7046
X7.6497Y-3.6733
X7.6497Y-3.807
X7.7165Y-2.5433
X7.7165Y-2.7323
X7.7165Y-3.6457
X7.7165Y-3.8346
X7.7833Y-2.571
X7.7833Y-2.7046
X7.7833Y-3.6733
X7.7833Y-3.807
X7.811Y-2.6378
X7.811Y-3.7402
T3
X4.2126Y-2.6378
X4.2126Y-3.7402
X7.7165Y-2.6378
X7.7165Y-3.7402
T0
M30
