%TF.GenerationSoftware,KiCad,Pcbnew,7.0.1-0*%
%TF.CreationDate,2023-04-27T22:29:58+08:00*%
%TF.ProjectId,antpanel,616e7470-616e-4656-9c2e-6b696361645f,Alpha 1*%
%TF.SameCoordinates,Original*%
%TF.FileFunction,Copper,L1,Top*%
%TF.FilePolarity,Positive*%
%FSLAX46Y46*%
G04 Gerber Fmt 4.6, Leading zero omitted, Abs format (unit mm)*
G04 Created by KiCad (PCBNEW 7.0.1-0) date 2023-04-27 22:29:58*
%MOMM*%
%LPD*%
G01*
G04 APERTURE LIST*
%TA.AperFunction,ComponentPad*%
%ADD10C,0.800000*%
%TD*%
%TA.AperFunction,ComponentPad*%
%ADD11C,6.400000*%
%TD*%
%TA.AperFunction,ViaPad*%
%ADD12C,0.800000*%
%TD*%
G04 APERTURE END LIST*
D10*
%TO.P,H4,1,1*%
%TO.N,GND*%
X193600000Y-95000000D03*
X194302944Y-93302944D03*
X194302944Y-96697056D03*
X196000000Y-92600000D03*
D11*
X196000000Y-95000000D03*
D10*
X196000000Y-97400000D03*
X197697056Y-93302944D03*
X197697056Y-96697056D03*
X198400000Y-95000000D03*
%TD*%
%TO.P,H2,1,1*%
%TO.N,GND*%
X193600000Y-67000000D03*
X194302944Y-65302944D03*
X194302944Y-68697056D03*
X196000000Y-64600000D03*
D11*
X196000000Y-67000000D03*
D10*
X196000000Y-69400000D03*
X197697056Y-65302944D03*
X197697056Y-68697056D03*
X198400000Y-67000000D03*
%TD*%
%TO.P,H3,1,1*%
%TO.N,GND*%
X104600000Y-95000000D03*
X105302944Y-93302944D03*
X105302944Y-96697056D03*
X107000000Y-92600000D03*
D11*
X107000000Y-95000000D03*
D10*
X107000000Y-97400000D03*
X108697056Y-93302944D03*
X108697056Y-96697056D03*
X109400000Y-95000000D03*
%TD*%
%TO.P,H1,1,1*%
%TO.N,GND*%
X104600000Y-67000000D03*
X105302944Y-65302944D03*
X105302944Y-68697056D03*
X107000000Y-64600000D03*
D11*
X107000000Y-67000000D03*
D10*
X107000000Y-69400000D03*
X108697056Y-65302944D03*
X108697056Y-68697056D03*
X109400000Y-67000000D03*
%TD*%
D12*
%TO.N,GND*%
X135000000Y-105000000D03*
X147000000Y-81000000D03*
X147000000Y-84000000D03*
X115000000Y-86000000D03*
X110000000Y-76000000D03*
X180000000Y-86000000D03*
X105000000Y-140000000D03*
X150000000Y-102000000D03*
X125000000Y-66000000D03*
X170000000Y-135000000D03*
X135000000Y-110000000D03*
X105000000Y-71000000D03*
X125000000Y-110000000D03*
X156000000Y-114000000D03*
X182000000Y-54000000D03*
X160000000Y-129000000D03*
X152000000Y-78000000D03*
X132000000Y-147000000D03*
X190000000Y-102000000D03*
X168000000Y-142000000D03*
X120000000Y-145000000D03*
X162000000Y-147000000D03*
X112000000Y-78000000D03*
X122000000Y-54000000D03*
X180000000Y-96000000D03*
X157000000Y-81000000D03*
X150000000Y-145000000D03*
X145000000Y-110000000D03*
X135000000Y-135000000D03*
X138000000Y-81000000D03*
X185000000Y-91000000D03*
X172000000Y-78000000D03*
X130000000Y-76000000D03*
X192000000Y-84000000D03*
X117000000Y-84000000D03*
X140000000Y-71000000D03*
X132000000Y-89000000D03*
X190000000Y-125000000D03*
X132000000Y-53000000D03*
X165000000Y-66000000D03*
X135000000Y-68000000D03*
X190000000Y-71000000D03*
X125000000Y-71000000D03*
X132000000Y-73000000D03*
X145000000Y-86000000D03*
X101000000Y-76000000D03*
X186000000Y-132000000D03*
X185000000Y-86000000D03*
X185000000Y-66000000D03*
X126000000Y-132000000D03*
X185000000Y-110000000D03*
X165000000Y-135000000D03*
X170000000Y-129000000D03*
X190000000Y-145000000D03*
X105000000Y-130000000D03*
X187000000Y-78000000D03*
X120000000Y-133000000D03*
X168000000Y-73000000D03*
X135000000Y-130000000D03*
X165000000Y-125000000D03*
X190000000Y-135000000D03*
X101000000Y-86000000D03*
X168000000Y-94000000D03*
X173000000Y-147000000D03*
X188000000Y-147000000D03*
X195000000Y-120000000D03*
X118000000Y-147000000D03*
X150000000Y-96000000D03*
X132000000Y-142000000D03*
X190000000Y-110000000D03*
X198000000Y-147000000D03*
X168000000Y-68000000D03*
X190000000Y-96000000D03*
X140000000Y-66000000D03*
X170000000Y-125000000D03*
X155000000Y-140000000D03*
X134000000Y-54000000D03*
X140000000Y-145000000D03*
X140000000Y-86000000D03*
X110000000Y-140000000D03*
X130000000Y-96000000D03*
X160000000Y-145000000D03*
X126000000Y-54000000D03*
X175000000Y-71000000D03*
X110000000Y-102000000D03*
X174000000Y-60000000D03*
X162000000Y-84000000D03*
X170000000Y-110000000D03*
X192000000Y-78000000D03*
X145000000Y-91000000D03*
X162000000Y-94000000D03*
X157000000Y-147000000D03*
X123000000Y-147000000D03*
X110000000Y-110000000D03*
X102000000Y-78000000D03*
X144000000Y-53000000D03*
X162000000Y-89000000D03*
X138000000Y-78000000D03*
X175000000Y-86000000D03*
X158000000Y-54000000D03*
X112000000Y-84000000D03*
X140000000Y-135000000D03*
X110000000Y-116000000D03*
X150000000Y-140000000D03*
X170000000Y-71000000D03*
X132000000Y-68000000D03*
X172000000Y-84000000D03*
X122000000Y-78000000D03*
X142000000Y-54000000D03*
X114000000Y-54000000D03*
X125000000Y-76000000D03*
X157000000Y-78000000D03*
X142000000Y-84000000D03*
X132000000Y-94000000D03*
X120000000Y-110000000D03*
X105000000Y-81000000D03*
X155000000Y-71000000D03*
X180000000Y-91000000D03*
X135000000Y-115000000D03*
X186000000Y-54000000D03*
X105000000Y-105000000D03*
X150000000Y-71000000D03*
X160000000Y-86000000D03*
X115000000Y-110000000D03*
X170000000Y-60000000D03*
X110000000Y-129000000D03*
X195000000Y-145000000D03*
X140000000Y-120000000D03*
X130000000Y-102000000D03*
X160000000Y-135000000D03*
X145000000Y-66000000D03*
X147000000Y-147000000D03*
X115000000Y-96000000D03*
X145000000Y-102000000D03*
X175000000Y-76000000D03*
X120000000Y-96000000D03*
X190000000Y-140000000D03*
X160000000Y-102000000D03*
X128000000Y-53000000D03*
X185000000Y-135000000D03*
X170000000Y-91000000D03*
X160000000Y-71000000D03*
X114000000Y-114000000D03*
X138000000Y-84000000D03*
X175000000Y-102000000D03*
X162000000Y-81000000D03*
X140000000Y-116000000D03*
X101000000Y-81000000D03*
X160000000Y-110000000D03*
X113000000Y-147000000D03*
X110000000Y-125000000D03*
X108000000Y-147000000D03*
X193000000Y-147000000D03*
X138000000Y-54000000D03*
X160000000Y-53000000D03*
X190000000Y-66000000D03*
X125000000Y-135000000D03*
X175000000Y-110000000D03*
X180000000Y-53000000D03*
X145000000Y-76000000D03*
X130000000Y-54000000D03*
X132000000Y-84000000D03*
X174000000Y-54000000D03*
X150000000Y-133000000D03*
X170000000Y-116000000D03*
X120000000Y-86000000D03*
X125000000Y-140000000D03*
X110000000Y-71000000D03*
X130000000Y-129000000D03*
X155000000Y-102000000D03*
X125000000Y-96000000D03*
X120000000Y-102000000D03*
X142000000Y-81000000D03*
X164000000Y-53000000D03*
X140000000Y-102000000D03*
X145000000Y-96000000D03*
X182000000Y-78000000D03*
X170000000Y-96000000D03*
X105000000Y-110000000D03*
X162000000Y-73000000D03*
X160000000Y-91000000D03*
X190000000Y-129000000D03*
X165000000Y-105000000D03*
X170000000Y-102000000D03*
X115000000Y-91000000D03*
X126000000Y-60000000D03*
X155000000Y-86000000D03*
X170000000Y-76000000D03*
X155000000Y-66000000D03*
X160000000Y-66000000D03*
X170000000Y-66000000D03*
X120000000Y-53000000D03*
X140000000Y-140000000D03*
X177000000Y-78000000D03*
X180000000Y-110000000D03*
X140000000Y-53000000D03*
X162000000Y-68000000D03*
X110000000Y-91000000D03*
X122000000Y-84000000D03*
X184000000Y-53000000D03*
X155000000Y-110000000D03*
X195000000Y-125000000D03*
X150000000Y-76000000D03*
X102000000Y-84000000D03*
X185000000Y-71000000D03*
X140000000Y-96000000D03*
X185000000Y-102000000D03*
X172000000Y-55000000D03*
X120000000Y-113000000D03*
X152000000Y-81000000D03*
X136000000Y-53000000D03*
X125000000Y-145000000D03*
X103000000Y-147000000D03*
X195000000Y-110000000D03*
X185000000Y-145000000D03*
X170000000Y-120000000D03*
X130000000Y-66000000D03*
X110000000Y-120000000D03*
X138000000Y-68000000D03*
X174000000Y-57000000D03*
X188000000Y-53000000D03*
X180000000Y-140000000D03*
X175000000Y-91000000D03*
X172000000Y-51000000D03*
X195000000Y-91000000D03*
X195000000Y-115000000D03*
X105000000Y-120000000D03*
X162000000Y-54000000D03*
X155000000Y-135000000D03*
X190000000Y-120000000D03*
X135000000Y-125000000D03*
X190000000Y-86000000D03*
X115000000Y-76000000D03*
X107000000Y-84000000D03*
X128000000Y-147000000D03*
X130000000Y-125000000D03*
X116000000Y-53000000D03*
X130000000Y-135000000D03*
X130000000Y-57000000D03*
X127000000Y-78000000D03*
X110000000Y-135000000D03*
X125000000Y-102000000D03*
X165000000Y-130000000D03*
X135000000Y-140000000D03*
X130000000Y-145000000D03*
X120000000Y-66000000D03*
X180000000Y-76000000D03*
X150000000Y-86000000D03*
X138000000Y-147000000D03*
X103000000Y-89000000D03*
X195000000Y-140000000D03*
X165000000Y-68000000D03*
X135000000Y-94000000D03*
X130000000Y-86000000D03*
X127000000Y-84000000D03*
X105000000Y-76000000D03*
X107000000Y-78000000D03*
X195000000Y-131000000D03*
X185000000Y-96000000D03*
X155000000Y-76000000D03*
X180000000Y-135000000D03*
X180000000Y-102000000D03*
X135000000Y-120000000D03*
X132000000Y-78000000D03*
X166000000Y-54000000D03*
X142000000Y-78000000D03*
X103000000Y-73000000D03*
X160000000Y-120000000D03*
X150000000Y-113000000D03*
X120000000Y-91000000D03*
X124000000Y-53000000D03*
X160000000Y-125000000D03*
X177000000Y-84000000D03*
X187000000Y-84000000D03*
X168000000Y-78000000D03*
X170000000Y-86000000D03*
X190000000Y-116000000D03*
X120000000Y-71000000D03*
X105000000Y-86000000D03*
X110000000Y-86000000D03*
X190000000Y-91000000D03*
X130000000Y-116000000D03*
X152000000Y-84000000D03*
X114000000Y-132000000D03*
X162000000Y-142000000D03*
X183000000Y-147000000D03*
X185000000Y-140000000D03*
X120000000Y-140000000D03*
X110000000Y-145000000D03*
X117000000Y-78000000D03*
X128000000Y-55000000D03*
X140000000Y-76000000D03*
X180000000Y-133000000D03*
X155000000Y-145000000D03*
X130000000Y-60000000D03*
X174000000Y-114000000D03*
X168000000Y-84000000D03*
X155000000Y-91000000D03*
X105000000Y-115000000D03*
X160000000Y-116000000D03*
X156000000Y-53000000D03*
X186000000Y-114000000D03*
X178000000Y-147000000D03*
X170000000Y-145000000D03*
X142000000Y-147000000D03*
X105000000Y-135000000D03*
X195000000Y-81000000D03*
X125000000Y-91000000D03*
X180000000Y-66000000D03*
X140000000Y-110000000D03*
X126000000Y-114000000D03*
X160000000Y-140000000D03*
X190000000Y-76000000D03*
X165000000Y-115000000D03*
X170000000Y-54000000D03*
X135000000Y-66000000D03*
X144000000Y-132000000D03*
X162000000Y-78000000D03*
X195000000Y-86000000D03*
X150000000Y-66000000D03*
X150000000Y-110000000D03*
X138000000Y-142000000D03*
X174000000Y-132000000D03*
X170000000Y-57000000D03*
X105000000Y-91000000D03*
X115000000Y-145000000D03*
X144000000Y-114000000D03*
X150000000Y-91000000D03*
X115000000Y-135000000D03*
X111000000Y-54000000D03*
X155000000Y-96000000D03*
X180000000Y-113000000D03*
X120000000Y-135000000D03*
X180000000Y-145000000D03*
X165000000Y-96000000D03*
X115000000Y-66000000D03*
X112000000Y-53000000D03*
X140000000Y-91000000D03*
X138000000Y-89000000D03*
X120000000Y-76000000D03*
X168000000Y-147000000D03*
X115000000Y-71000000D03*
X178000000Y-54000000D03*
X140000000Y-125000000D03*
X145000000Y-145000000D03*
X170000000Y-140000000D03*
X176000000Y-53000000D03*
X160000000Y-96000000D03*
X118000000Y-54000000D03*
X115000000Y-102000000D03*
X130000000Y-120000000D03*
X140000000Y-129000000D03*
X175000000Y-145000000D03*
X182000000Y-84000000D03*
X147000000Y-78000000D03*
X165000000Y-120000000D03*
X180000000Y-71000000D03*
X130000000Y-140000000D03*
X175000000Y-140000000D03*
X175000000Y-135000000D03*
X160000000Y-76000000D03*
X145000000Y-140000000D03*
X195000000Y-135000000D03*
X138000000Y-94000000D03*
X138000000Y-73000000D03*
X145000000Y-135000000D03*
X195000000Y-76000000D03*
X165000000Y-110000000D03*
X185000000Y-76000000D03*
X172000000Y-53000000D03*
X105000000Y-145000000D03*
X130000000Y-110000000D03*
X175000000Y-96000000D03*
X157000000Y-84000000D03*
X168000000Y-89000000D03*
X175000000Y-66000000D03*
X168000000Y-53000000D03*
X135000000Y-96000000D03*
X105000000Y-125000000D03*
X128000000Y-51000000D03*
X115000000Y-140000000D03*
X130000000Y-91000000D03*
X165000000Y-94000000D03*
X152000000Y-147000000D03*
X125000000Y-86000000D03*
X165000000Y-140000000D03*
X150000000Y-135000000D03*
X195000000Y-105000000D03*
X145000000Y-71000000D03*
X130000000Y-71000000D03*
X126000000Y-57000000D03*
X156000000Y-132000000D03*
%TD*%
%TA.AperFunction,Conductor*%
%TO.N,GND*%
G36*
X111928039Y-100000500D02*
G01*
X112071961Y-100000500D01*
X112088013Y-100000500D01*
X112091491Y-100000000D01*
X113908509Y-100000000D01*
X113911987Y-100000500D01*
X113928039Y-100000500D01*
X114071961Y-100000500D01*
X114088013Y-100000500D01*
X114091491Y-100000000D01*
X115908509Y-100000000D01*
X115911987Y-100000500D01*
X115928039Y-100000500D01*
X116071961Y-100000500D01*
X116088013Y-100000500D01*
X116091491Y-100000000D01*
X117908509Y-100000000D01*
X117911987Y-100000500D01*
X117928039Y-100000500D01*
X118071961Y-100000500D01*
X118088013Y-100000500D01*
X118091491Y-100000000D01*
X119908509Y-100000000D01*
X119911987Y-100000500D01*
X119928039Y-100000500D01*
X120071961Y-100000500D01*
X120088013Y-100000500D01*
X120091491Y-100000000D01*
X121908509Y-100000000D01*
X121911987Y-100000500D01*
X121928039Y-100000500D01*
X122071961Y-100000500D01*
X122088013Y-100000500D01*
X122091491Y-100000000D01*
X123908509Y-100000000D01*
X123911987Y-100000500D01*
X123928039Y-100000500D01*
X124071961Y-100000500D01*
X124088013Y-100000500D01*
X124091491Y-100000000D01*
X125908509Y-100000000D01*
X125911987Y-100000500D01*
X125928039Y-100000500D01*
X126071961Y-100000500D01*
X126088013Y-100000500D01*
X126091491Y-100000000D01*
X127908509Y-100000000D01*
X127911987Y-100000500D01*
X127928039Y-100000500D01*
X128071961Y-100000500D01*
X128088013Y-100000500D01*
X128091491Y-100000000D01*
X129915917Y-100000000D01*
X129919715Y-100000500D01*
X129934108Y-100000500D01*
X129999901Y-100000500D01*
X130000000Y-100000500D01*
X130000500Y-100000500D01*
X139999500Y-100000500D01*
X140000099Y-100000500D01*
X140065892Y-100000500D01*
X140080285Y-100000500D01*
X140084083Y-100000000D01*
X141908509Y-100000000D01*
X141911987Y-100000500D01*
X141928039Y-100000500D01*
X142071961Y-100000500D01*
X142088013Y-100000500D01*
X142091491Y-100000000D01*
X143908509Y-100000000D01*
X143911987Y-100000500D01*
X143928039Y-100000500D01*
X144071961Y-100000500D01*
X144088013Y-100000500D01*
X144091491Y-100000000D01*
X145908509Y-100000000D01*
X145911987Y-100000500D01*
X145928039Y-100000500D01*
X146071961Y-100000500D01*
X146088013Y-100000500D01*
X146091491Y-100000000D01*
X147908509Y-100000000D01*
X147911987Y-100000500D01*
X147928039Y-100000500D01*
X148071961Y-100000500D01*
X148088013Y-100000500D01*
X148091491Y-100000000D01*
X149908509Y-100000000D01*
X149911987Y-100000500D01*
X149928039Y-100000500D01*
X150071961Y-100000500D01*
X150088013Y-100000500D01*
X150091491Y-100000000D01*
X151908509Y-100000000D01*
X151911987Y-100000500D01*
X151928039Y-100000500D01*
X152071961Y-100000500D01*
X152088013Y-100000500D01*
X152091491Y-100000000D01*
X153908509Y-100000000D01*
X153911987Y-100000500D01*
X153928039Y-100000500D01*
X154071961Y-100000500D01*
X154088013Y-100000500D01*
X154091491Y-100000000D01*
X155908509Y-100000000D01*
X155911987Y-100000500D01*
X155928039Y-100000500D01*
X156071961Y-100000500D01*
X156088013Y-100000500D01*
X156091491Y-100000000D01*
X157908509Y-100000000D01*
X157911987Y-100000500D01*
X157928039Y-100000500D01*
X158071961Y-100000500D01*
X158088013Y-100000500D01*
X158091491Y-100000000D01*
X159915917Y-100000000D01*
X159919715Y-100000500D01*
X159934108Y-100000500D01*
X159999901Y-100000500D01*
X160000000Y-100000500D01*
X160000500Y-100000500D01*
X169999500Y-100000500D01*
X170000099Y-100000500D01*
X170065892Y-100000500D01*
X170080285Y-100000500D01*
X170084083Y-100000000D01*
X171908509Y-100000000D01*
X171911987Y-100000500D01*
X171928039Y-100000500D01*
X172071961Y-100000500D01*
X172088013Y-100000500D01*
X172091491Y-100000000D01*
X173908509Y-100000000D01*
X173911987Y-100000500D01*
X173928039Y-100000500D01*
X174071961Y-100000500D01*
X174088013Y-100000500D01*
X174091491Y-100000000D01*
X175908509Y-100000000D01*
X175911987Y-100000500D01*
X175928039Y-100000500D01*
X176071961Y-100000500D01*
X176088013Y-100000500D01*
X176091491Y-100000000D01*
X177908509Y-100000000D01*
X177911987Y-100000500D01*
X177928039Y-100000500D01*
X178071961Y-100000500D01*
X178088013Y-100000500D01*
X178091491Y-100000000D01*
X179908509Y-100000000D01*
X179911987Y-100000500D01*
X179928039Y-100000500D01*
X180071961Y-100000500D01*
X180088013Y-100000500D01*
X180091491Y-100000000D01*
X181908509Y-100000000D01*
X181911987Y-100000500D01*
X181928039Y-100000500D01*
X182071961Y-100000500D01*
X182088013Y-100000500D01*
X182091491Y-100000000D01*
X183908509Y-100000000D01*
X183911987Y-100000500D01*
X183928039Y-100000500D01*
X184071961Y-100000500D01*
X184088013Y-100000500D01*
X184091491Y-100000000D01*
X185908509Y-100000000D01*
X185911987Y-100000500D01*
X185928039Y-100000500D01*
X186071961Y-100000500D01*
X186088013Y-100000500D01*
X186091491Y-100000000D01*
X187908509Y-100000000D01*
X187911987Y-100000500D01*
X187928039Y-100000500D01*
X188071961Y-100000500D01*
X188088013Y-100000500D01*
X188091491Y-100000000D01*
X189915917Y-100000000D01*
X189919715Y-100000500D01*
X189934108Y-100000500D01*
X189999901Y-100000500D01*
X190000000Y-100000500D01*
X190000500Y-100000500D01*
X195997128Y-100000500D01*
X196002854Y-100000632D01*
X196018811Y-100001369D01*
X196173088Y-100008502D01*
X196369795Y-100018166D01*
X196380787Y-100019201D01*
X196562876Y-100044601D01*
X196563781Y-100044732D01*
X196747261Y-100071949D01*
X196757413Y-100073892D01*
X196938614Y-100116510D01*
X196940023Y-100116852D01*
X197117874Y-100161401D01*
X197127091Y-100164096D01*
X197304478Y-100223550D01*
X197306618Y-100224292D01*
X197478220Y-100285692D01*
X197486519Y-100289004D01*
X197657980Y-100364712D01*
X197660909Y-100366051D01*
X197747263Y-100406892D01*
X197825119Y-100443715D01*
X197832411Y-100447465D01*
X197929135Y-100501341D01*
X197996435Y-100538827D01*
X197999810Y-100540777D01*
X198155371Y-100634017D01*
X198161670Y-100638058D01*
X198316699Y-100744256D01*
X198320459Y-100746935D01*
X198466009Y-100854882D01*
X198471305Y-100859040D01*
X198616009Y-100979200D01*
X198619947Y-100982617D01*
X198754206Y-101104303D01*
X198758590Y-101108478D01*
X198891520Y-101241408D01*
X198895698Y-101245795D01*
X199017375Y-101380045D01*
X199020805Y-101383998D01*
X199140951Y-101528684D01*
X199145124Y-101534000D01*
X199253041Y-101679509D01*
X199255742Y-101683299D01*
X199361940Y-101838328D01*
X199365999Y-101844656D01*
X199459200Y-102000153D01*
X199461171Y-102003563D01*
X199552525Y-102167573D01*
X199556291Y-102174896D01*
X199633947Y-102339089D01*
X199635286Y-102342018D01*
X199710994Y-102513479D01*
X199714311Y-102521791D01*
X199775666Y-102693265D01*
X199776487Y-102695634D01*
X199835894Y-102872881D01*
X199838606Y-102882157D01*
X199883104Y-103059803D01*
X199883526Y-103061543D01*
X199926101Y-103242562D01*
X199928053Y-103252758D01*
X199955257Y-103436156D01*
X199955410Y-103437218D01*
X199980794Y-103619184D01*
X199981834Y-103630232D01*
X199991503Y-103827067D01*
X199991517Y-103827359D01*
X199991514Y-103827359D01*
X199991529Y-103827595D01*
X199999368Y-103997145D01*
X199999500Y-104002872D01*
X199999500Y-148275500D01*
X199982887Y-148337500D01*
X199937500Y-148382887D01*
X199875500Y-148399500D01*
X193024760Y-148399500D01*
X193024554Y-148399459D01*
X192999998Y-148399459D01*
X192999807Y-148399538D01*
X192999619Y-148399615D01*
X192999615Y-148399618D01*
X192999459Y-148399999D01*
X192999476Y-148424616D01*
X192999471Y-148424616D01*
X192999500Y-148424760D01*
X192999500Y-149875500D01*
X192982887Y-149937500D01*
X192937500Y-149982887D01*
X192875500Y-149999500D01*
X166024500Y-149999500D01*
X165962500Y-149982887D01*
X165917113Y-149937500D01*
X165900500Y-149875500D01*
X165900500Y-143324760D01*
X165900528Y-143324616D01*
X165900524Y-143324616D01*
X165900539Y-143300002D01*
X165900541Y-143300000D01*
X165900461Y-143299808D01*
X165900384Y-143299618D01*
X165900380Y-143299614D01*
X165900194Y-143299538D01*
X165900002Y-143299459D01*
X165875446Y-143299459D01*
X165875240Y-143299500D01*
X164124760Y-143299500D01*
X164124554Y-143299459D01*
X164099998Y-143299459D01*
X164099807Y-143299538D01*
X164099619Y-143299615D01*
X164099615Y-143299618D01*
X164099459Y-143299999D01*
X164099476Y-143324616D01*
X164099471Y-143324616D01*
X164099500Y-143324760D01*
X164099500Y-148275500D01*
X164082887Y-148337500D01*
X164037500Y-148382887D01*
X163975500Y-148399500D01*
X136024500Y-148399500D01*
X135962500Y-148382887D01*
X135917113Y-148337500D01*
X135900500Y-148275500D01*
X135900500Y-143324760D01*
X135900528Y-143324616D01*
X135900524Y-143324616D01*
X135900539Y-143300002D01*
X135900541Y-143300000D01*
X135900461Y-143299808D01*
X135900384Y-143299618D01*
X135900380Y-143299614D01*
X135900194Y-143299538D01*
X135900002Y-143299459D01*
X135875446Y-143299459D01*
X135875240Y-143299500D01*
X134124760Y-143299500D01*
X134124554Y-143299459D01*
X134099998Y-143299459D01*
X134099807Y-143299538D01*
X134099619Y-143299615D01*
X134099615Y-143299618D01*
X134099459Y-143299999D01*
X134099476Y-143324616D01*
X134099471Y-143324616D01*
X134099500Y-143324760D01*
X134099500Y-149875500D01*
X134082887Y-149937500D01*
X134037500Y-149982887D01*
X133975500Y-149999500D01*
X107124500Y-149999500D01*
X107062500Y-149982887D01*
X107017113Y-149937500D01*
X107000500Y-149875500D01*
X107000500Y-148424760D01*
X107000528Y-148424616D01*
X107000524Y-148424616D01*
X107000539Y-148400002D01*
X107000541Y-148400000D01*
X107000461Y-148399808D01*
X107000384Y-148399618D01*
X107000380Y-148399614D01*
X107000194Y-148399538D01*
X107000002Y-148399459D01*
X106975446Y-148399459D01*
X106975240Y-148399500D01*
X100220551Y-148399500D01*
X100158623Y-148382928D01*
X100113247Y-148337643D01*
X100096551Y-148275748D01*
X100096551Y-148275500D01*
X100064200Y-132099999D01*
X109294551Y-132099999D01*
X109314317Y-132351149D01*
X109373126Y-132596110D01*
X109421330Y-132712484D01*
X109469534Y-132828859D01*
X109601164Y-133043659D01*
X109764776Y-133235224D01*
X109956341Y-133398836D01*
X110171141Y-133530466D01*
X110403889Y-133626873D01*
X110648852Y-133685683D01*
X110900000Y-133705449D01*
X111151148Y-133685683D01*
X111396111Y-133626873D01*
X111628859Y-133530466D01*
X111843659Y-133398836D01*
X112035224Y-133235224D01*
X112198836Y-133043659D01*
X112330466Y-132828859D01*
X112426873Y-132596111D01*
X112485683Y-132351148D01*
X112505449Y-132100000D01*
X127494551Y-132100000D01*
X127514317Y-132351149D01*
X127573126Y-132596110D01*
X127621330Y-132712484D01*
X127669534Y-132828859D01*
X127801164Y-133043659D01*
X127964776Y-133235224D01*
X128156341Y-133398836D01*
X128371141Y-133530466D01*
X128603889Y-133626873D01*
X128848852Y-133685683D01*
X129100000Y-133705449D01*
X129351148Y-133685683D01*
X129596111Y-133626873D01*
X129828859Y-133530466D01*
X130043659Y-133398836D01*
X130235224Y-133235224D01*
X130398836Y-133043659D01*
X130530466Y-132828859D01*
X130626873Y-132596111D01*
X130685683Y-132351148D01*
X130705449Y-132100000D01*
X139294551Y-132100000D01*
X139314317Y-132351149D01*
X139373126Y-132596110D01*
X139421330Y-132712484D01*
X139469534Y-132828859D01*
X139601164Y-133043659D01*
X139764776Y-133235224D01*
X139956341Y-133398836D01*
X140171141Y-133530466D01*
X140403889Y-133626873D01*
X140648852Y-133685683D01*
X140900000Y-133705449D01*
X141151148Y-133685683D01*
X141396111Y-133626873D01*
X141628859Y-133530466D01*
X141843659Y-133398836D01*
X142035224Y-133235224D01*
X142198836Y-133043659D01*
X142330466Y-132828859D01*
X142426873Y-132596111D01*
X142485683Y-132351148D01*
X142505449Y-132100000D01*
X157494551Y-132100000D01*
X157514317Y-132351149D01*
X157573126Y-132596110D01*
X157621330Y-132712484D01*
X157669534Y-132828859D01*
X157801164Y-133043659D01*
X157964776Y-133235224D01*
X158156341Y-133398836D01*
X158371141Y-133530466D01*
X158603889Y-133626873D01*
X158848852Y-133685683D01*
X159100000Y-133705449D01*
X159351148Y-133685683D01*
X159596111Y-133626873D01*
X159828859Y-133530466D01*
X160043659Y-133398836D01*
X160235224Y-133235224D01*
X160398836Y-133043659D01*
X160530466Y-132828859D01*
X160626873Y-132596111D01*
X160685683Y-132351148D01*
X160705449Y-132100000D01*
X169294551Y-132100000D01*
X169314317Y-132351149D01*
X169373126Y-132596110D01*
X169421330Y-132712484D01*
X169469534Y-132828859D01*
X169601164Y-133043659D01*
X169764776Y-133235224D01*
X169956341Y-133398836D01*
X170171141Y-133530466D01*
X170403889Y-133626873D01*
X170648852Y-133685683D01*
X170900000Y-133705449D01*
X171151148Y-133685683D01*
X171396111Y-133626873D01*
X171628859Y-133530466D01*
X171843659Y-133398836D01*
X172035224Y-133235224D01*
X172198836Y-133043659D01*
X172330466Y-132828859D01*
X172426873Y-132596111D01*
X172485683Y-132351148D01*
X172505449Y-132100000D01*
X187494551Y-132100000D01*
X187514317Y-132351149D01*
X187573126Y-132596110D01*
X187621330Y-132712484D01*
X187669534Y-132828859D01*
X187801164Y-133043659D01*
X187964776Y-133235224D01*
X188156341Y-133398836D01*
X188371141Y-133530466D01*
X188603889Y-133626873D01*
X188848852Y-133685683D01*
X189100000Y-133705449D01*
X189351148Y-133685683D01*
X189596111Y-133626873D01*
X189828859Y-133530466D01*
X190043659Y-133398836D01*
X190235224Y-133235224D01*
X190398836Y-133043659D01*
X190530466Y-132828859D01*
X190626873Y-132596111D01*
X190685683Y-132351148D01*
X190705449Y-132100000D01*
X190685683Y-131848852D01*
X190626873Y-131603889D01*
X190530466Y-131371141D01*
X190398836Y-131156341D01*
X190235224Y-130964776D01*
X190043659Y-130801164D01*
X189828859Y-130669534D01*
X189712484Y-130621330D01*
X189596110Y-130573126D01*
X189351149Y-130514317D01*
X189100000Y-130494551D01*
X188848850Y-130514317D01*
X188603889Y-130573126D01*
X188371139Y-130669535D01*
X188156342Y-130801163D01*
X187964776Y-130964776D01*
X187801163Y-131156342D01*
X187669535Y-131371139D01*
X187573126Y-131603889D01*
X187514317Y-131848850D01*
X187494551Y-132100000D01*
X172505449Y-132100000D01*
X172485683Y-131848852D01*
X172426873Y-131603889D01*
X172330466Y-131371141D01*
X172198836Y-131156341D01*
X172035224Y-130964776D01*
X171843659Y-130801164D01*
X171628859Y-130669534D01*
X171512484Y-130621330D01*
X171396110Y-130573126D01*
X171151149Y-130514317D01*
X170900000Y-130494551D01*
X170648850Y-130514317D01*
X170403889Y-130573126D01*
X170171139Y-130669535D01*
X169956342Y-130801163D01*
X169764776Y-130964776D01*
X169601163Y-131156342D01*
X169469535Y-131371139D01*
X169373126Y-131603889D01*
X169314317Y-131848850D01*
X169294551Y-132100000D01*
X160705449Y-132100000D01*
X160685683Y-131848852D01*
X160626873Y-131603889D01*
X160530466Y-131371141D01*
X160398836Y-131156341D01*
X160235224Y-130964776D01*
X160043659Y-130801164D01*
X159828859Y-130669534D01*
X159712484Y-130621330D01*
X159596110Y-130573126D01*
X159351149Y-130514317D01*
X159100000Y-130494551D01*
X158848850Y-130514317D01*
X158603889Y-130573126D01*
X158371139Y-130669535D01*
X158156342Y-130801163D01*
X157964776Y-130964776D01*
X157801163Y-131156342D01*
X157669535Y-131371139D01*
X157573126Y-131603889D01*
X157514317Y-131848850D01*
X157494551Y-132100000D01*
X142505449Y-132100000D01*
X142485683Y-131848852D01*
X142426873Y-131603889D01*
X142330466Y-131371141D01*
X142198836Y-131156341D01*
X142035224Y-130964776D01*
X141843659Y-130801164D01*
X141628859Y-130669534D01*
X141512484Y-130621330D01*
X141396110Y-130573126D01*
X141151149Y-130514317D01*
X140900000Y-130494551D01*
X140648850Y-130514317D01*
X140403889Y-130573126D01*
X140171139Y-130669535D01*
X139956342Y-130801163D01*
X139764776Y-130964776D01*
X139601163Y-131156342D01*
X139469535Y-131371139D01*
X139373126Y-131603889D01*
X139314317Y-131848850D01*
X139294551Y-132100000D01*
X130705449Y-132100000D01*
X130685683Y-131848852D01*
X130626873Y-131603889D01*
X130530466Y-131371141D01*
X130398836Y-131156341D01*
X130235224Y-130964776D01*
X130043659Y-130801164D01*
X129828859Y-130669534D01*
X129712484Y-130621330D01*
X129596110Y-130573126D01*
X129351149Y-130514317D01*
X129100000Y-130494551D01*
X128848850Y-130514317D01*
X128603889Y-130573126D01*
X128371139Y-130669535D01*
X128156342Y-130801163D01*
X127964776Y-130964776D01*
X127801163Y-131156342D01*
X127669535Y-131371139D01*
X127573126Y-131603889D01*
X127514317Y-131848850D01*
X127494551Y-132100000D01*
X112505449Y-132100000D01*
X112485683Y-131848852D01*
X112426873Y-131603889D01*
X112330466Y-131371141D01*
X112198836Y-131156341D01*
X112035224Y-130964776D01*
X111843659Y-130801164D01*
X111628859Y-130669534D01*
X111512484Y-130621330D01*
X111396110Y-130573126D01*
X111151149Y-130514317D01*
X110900000Y-130494551D01*
X110648850Y-130514317D01*
X110403889Y-130573126D01*
X110171139Y-130669535D01*
X109956342Y-130801163D01*
X109764776Y-130964776D01*
X109601163Y-131156342D01*
X109469535Y-131371139D01*
X109373126Y-131603889D01*
X109314317Y-131848850D01*
X109294551Y-132099999D01*
X100064200Y-132099999D01*
X100038814Y-119407204D01*
X111746319Y-119407204D01*
X111749500Y-119424060D01*
X111749500Y-126575968D01*
X111746323Y-126592822D01*
X111749019Y-126599000D01*
X111750001Y-126601313D01*
X111758081Y-126620903D01*
X111759426Y-126622840D01*
X111865561Y-126865968D01*
X112131249Y-127381501D01*
X112429582Y-127878889D01*
X112759298Y-128356027D01*
X113119046Y-128810961D01*
X113507317Y-129241784D01*
X113922526Y-129646736D01*
X114362933Y-130024120D01*
X114826717Y-130372376D01*
X115043521Y-130514317D01*
X115311957Y-130690062D01*
X115816634Y-130975854D01*
X116338648Y-131228566D01*
X116338652Y-131228567D01*
X116338657Y-131228570D01*
X116875866Y-131447164D01*
X117059604Y-131508468D01*
X117426017Y-131630724D01*
X117426026Y-131630726D01*
X117426031Y-131630728D01*
X117986870Y-131778502D01*
X118556057Y-131889872D01*
X119131232Y-131964376D01*
X119710010Y-132001705D01*
X120289989Y-132001705D01*
X120289990Y-132001705D01*
X120868768Y-131964376D01*
X121443943Y-131889872D01*
X122013130Y-131778502D01*
X122573969Y-131630728D01*
X122573977Y-131630725D01*
X122573982Y-131630724D01*
X122758233Y-131569247D01*
X123124134Y-131447164D01*
X123661343Y-131228570D01*
X124183369Y-130975852D01*
X124688047Y-130690059D01*
X125173283Y-130372376D01*
X125637067Y-130024120D01*
X126077474Y-129646736D01*
X126492678Y-129241788D01*
X126880958Y-128810956D01*
X127240702Y-128356027D01*
X127570420Y-127878886D01*
X127868744Y-127381513D01*
X128134437Y-126865970D01*
X128240141Y-126623826D01*
X128241725Y-126621584D01*
X128249868Y-126601642D01*
X128251124Y-126598676D01*
X128253666Y-126592882D01*
X128250500Y-126576034D01*
X128250500Y-119423995D01*
X128253659Y-119407204D01*
X141746319Y-119407204D01*
X141749500Y-119424060D01*
X141749500Y-126575968D01*
X141746323Y-126592822D01*
X141749019Y-126599000D01*
X141750001Y-126601313D01*
X141758081Y-126620903D01*
X141759426Y-126622840D01*
X141865561Y-126865968D01*
X142131249Y-127381501D01*
X142429582Y-127878889D01*
X142759298Y-128356027D01*
X143119046Y-128810961D01*
X143507317Y-129241784D01*
X143922526Y-129646736D01*
X144362933Y-130024120D01*
X144826717Y-130372376D01*
X145043521Y-130514317D01*
X145311957Y-130690062D01*
X145816634Y-130975854D01*
X146338648Y-131228566D01*
X146338652Y-131228567D01*
X146338657Y-131228570D01*
X146875866Y-131447164D01*
X147059604Y-131508468D01*
X147426017Y-131630724D01*
X147426026Y-131630726D01*
X147426031Y-131630728D01*
X147986870Y-131778502D01*
X148556057Y-131889872D01*
X149131232Y-131964376D01*
X149710010Y-132001705D01*
X150289989Y-132001705D01*
X150289990Y-132001705D01*
X150868768Y-131964376D01*
X151443943Y-131889872D01*
X152013130Y-131778502D01*
X152573969Y-131630728D01*
X152573977Y-131630725D01*
X152573982Y-131630724D01*
X152758233Y-131569247D01*
X153124134Y-131447164D01*
X153661343Y-131228570D01*
X154183369Y-130975852D01*
X154688047Y-130690059D01*
X155173283Y-130372376D01*
X155637067Y-130024120D01*
X156077474Y-129646736D01*
X156492678Y-129241788D01*
X156880958Y-128810956D01*
X157240702Y-128356027D01*
X157570420Y-127878886D01*
X157868744Y-127381513D01*
X158134437Y-126865970D01*
X158240141Y-126623826D01*
X158241725Y-126621584D01*
X158249868Y-126601642D01*
X158251124Y-126598676D01*
X158253666Y-126592882D01*
X158250500Y-126576034D01*
X158250500Y-119423995D01*
X158253659Y-119407204D01*
X171746319Y-119407204D01*
X171749500Y-119424060D01*
X171749500Y-126575968D01*
X171746323Y-126592822D01*
X171749019Y-126599000D01*
X171750001Y-126601313D01*
X171758081Y-126620903D01*
X171759426Y-126622840D01*
X171865561Y-126865968D01*
X172131249Y-127381501D01*
X172429582Y-127878889D01*
X172759298Y-128356027D01*
X173119046Y-128810961D01*
X173507317Y-129241784D01*
X173922526Y-129646736D01*
X174362933Y-130024120D01*
X174826717Y-130372376D01*
X175043521Y-130514317D01*
X175311957Y-130690062D01*
X175816634Y-130975854D01*
X176338648Y-131228566D01*
X176338652Y-131228567D01*
X176338657Y-131228570D01*
X176875866Y-131447164D01*
X177059604Y-131508468D01*
X177426017Y-131630724D01*
X177426026Y-131630726D01*
X177426031Y-131630728D01*
X177986870Y-131778502D01*
X178556057Y-131889872D01*
X179131232Y-131964376D01*
X179710010Y-132001705D01*
X180289989Y-132001705D01*
X180289990Y-132001705D01*
X180868768Y-131964376D01*
X181443943Y-131889872D01*
X182013130Y-131778502D01*
X182573969Y-131630728D01*
X182573977Y-131630725D01*
X182573982Y-131630724D01*
X182758233Y-131569247D01*
X183124134Y-131447164D01*
X183661343Y-131228570D01*
X184183369Y-130975852D01*
X184688047Y-130690059D01*
X185173283Y-130372376D01*
X185637067Y-130024120D01*
X186077474Y-129646736D01*
X186492678Y-129241788D01*
X186880958Y-128810956D01*
X187240702Y-128356027D01*
X187570420Y-127878886D01*
X187868744Y-127381513D01*
X188134437Y-126865970D01*
X188240141Y-126623826D01*
X188241725Y-126621584D01*
X188249868Y-126601642D01*
X188251124Y-126598676D01*
X188253666Y-126592882D01*
X188250500Y-126576034D01*
X188250500Y-119423995D01*
X188253671Y-119407142D01*
X188251067Y-119401194D01*
X188249929Y-119398509D01*
X188242786Y-119381090D01*
X188241362Y-119378969D01*
X188134437Y-119134030D01*
X187868744Y-118618487D01*
X187570420Y-118121114D01*
X187240702Y-117643973D01*
X186880958Y-117189044D01*
X186880953Y-117189038D01*
X186492682Y-116758215D01*
X186077471Y-116353261D01*
X185637066Y-115975879D01*
X185173289Y-115627628D01*
X184688042Y-115309937D01*
X184183365Y-115024145D01*
X183661351Y-114771433D01*
X183394918Y-114663020D01*
X183124134Y-114552836D01*
X183124127Y-114552833D01*
X183124123Y-114552832D01*
X182573982Y-114369275D01*
X182293549Y-114295384D01*
X182013130Y-114221498D01*
X182013123Y-114221496D01*
X182013117Y-114221495D01*
X181443954Y-114110130D01*
X181443951Y-114110129D01*
X181443943Y-114110128D01*
X181087270Y-114063927D01*
X180868763Y-114035623D01*
X180340296Y-114001539D01*
X180289990Y-113998295D01*
X179710010Y-113998295D01*
X179663726Y-114001280D01*
X179131236Y-114035623D01*
X178836310Y-114073826D01*
X178556057Y-114110128D01*
X178556050Y-114110129D01*
X178556045Y-114110130D01*
X177986882Y-114221495D01*
X177986872Y-114221497D01*
X177986870Y-114221498D01*
X177880171Y-114249611D01*
X177426017Y-114369275D01*
X176875876Y-114552832D01*
X176338648Y-114771433D01*
X175816634Y-115024145D01*
X175311957Y-115309937D01*
X174826710Y-115627628D01*
X174362933Y-115975879D01*
X173922528Y-116353261D01*
X173507317Y-116758215D01*
X173119046Y-117189038D01*
X172759298Y-117643972D01*
X172429582Y-118121110D01*
X172131249Y-118618498D01*
X171865561Y-119134031D01*
X171758102Y-119380192D01*
X171756910Y-119382009D01*
X171749930Y-119398860D01*
X171749065Y-119400897D01*
X171746319Y-119407204D01*
X158253659Y-119407204D01*
X158253671Y-119407142D01*
X158251067Y-119401194D01*
X158249929Y-119398509D01*
X158242786Y-119381090D01*
X158241362Y-119378969D01*
X158134437Y-119134030D01*
X157868744Y-118618487D01*
X157570420Y-118121114D01*
X157240702Y-117643973D01*
X156880958Y-117189044D01*
X156880953Y-117189038D01*
X156492682Y-116758215D01*
X156077471Y-116353261D01*
X155637066Y-115975879D01*
X155173289Y-115627628D01*
X154688042Y-115309937D01*
X154183365Y-115024145D01*
X153661351Y-114771433D01*
X153394918Y-114663020D01*
X153124134Y-114552836D01*
X153124127Y-114552833D01*
X153124123Y-114552832D01*
X152573982Y-114369275D01*
X152293549Y-114295384D01*
X152013130Y-114221498D01*
X152013123Y-114221496D01*
X152013117Y-114221495D01*
X151443954Y-114110130D01*
X151443951Y-114110129D01*
X151443943Y-114110128D01*
X151087270Y-114063927D01*
X150868763Y-114035623D01*
X150340296Y-114001539D01*
X150289990Y-113998295D01*
X149710010Y-113998295D01*
X149663726Y-114001280D01*
X149131236Y-114035623D01*
X148836310Y-114073826D01*
X148556057Y-114110128D01*
X148556050Y-114110129D01*
X148556045Y-114110130D01*
X147986882Y-114221495D01*
X147986872Y-114221497D01*
X147986870Y-114221498D01*
X147880171Y-114249611D01*
X147426017Y-114369275D01*
X146875876Y-114552832D01*
X146338648Y-114771433D01*
X145816634Y-115024145D01*
X145311957Y-115309937D01*
X144826710Y-115627628D01*
X144362933Y-115975879D01*
X143922528Y-116353261D01*
X143507317Y-116758215D01*
X143119046Y-117189038D01*
X142759298Y-117643972D01*
X142429582Y-118121110D01*
X142131249Y-118618498D01*
X141865561Y-119134031D01*
X141758102Y-119380192D01*
X141756910Y-119382009D01*
X141749930Y-119398860D01*
X141749065Y-119400897D01*
X141746319Y-119407204D01*
X128253659Y-119407204D01*
X128253671Y-119407142D01*
X128251067Y-119401194D01*
X128249929Y-119398509D01*
X128242786Y-119381090D01*
X128241362Y-119378969D01*
X128134437Y-119134030D01*
X127868744Y-118618487D01*
X127570420Y-118121114D01*
X127240702Y-117643973D01*
X126880958Y-117189044D01*
X126880953Y-117189038D01*
X126492682Y-116758215D01*
X126077471Y-116353261D01*
X125637066Y-115975879D01*
X125173289Y-115627628D01*
X124688042Y-115309937D01*
X124183365Y-115024145D01*
X123661351Y-114771433D01*
X123394918Y-114663020D01*
X123124134Y-114552836D01*
X123124127Y-114552833D01*
X123124123Y-114552832D01*
X122573982Y-114369275D01*
X122293549Y-114295384D01*
X122013130Y-114221498D01*
X122013123Y-114221496D01*
X122013117Y-114221495D01*
X121443954Y-114110130D01*
X121443951Y-114110129D01*
X121443943Y-114110128D01*
X121087270Y-114063927D01*
X120868763Y-114035623D01*
X120340296Y-114001539D01*
X120289990Y-113998295D01*
X119710010Y-113998295D01*
X119663726Y-114001280D01*
X119131236Y-114035623D01*
X118836310Y-114073826D01*
X118556057Y-114110128D01*
X118556050Y-114110129D01*
X118556045Y-114110130D01*
X117986882Y-114221495D01*
X117986872Y-114221497D01*
X117986870Y-114221498D01*
X117880171Y-114249611D01*
X117426017Y-114369275D01*
X116875876Y-114552832D01*
X116338648Y-114771433D01*
X115816634Y-115024145D01*
X115311957Y-115309937D01*
X114826710Y-115627628D01*
X114362933Y-115975879D01*
X113922528Y-116353261D01*
X113507317Y-116758215D01*
X113119046Y-117189038D01*
X112759298Y-117643972D01*
X112429582Y-118121110D01*
X112131249Y-118618498D01*
X111865561Y-119134031D01*
X111758102Y-119380192D01*
X111756910Y-119382009D01*
X111749930Y-119398860D01*
X111749065Y-119400897D01*
X111746319Y-119407204D01*
X100038814Y-119407204D01*
X100038800Y-119400000D01*
X100027800Y-113899999D01*
X109294551Y-113899999D01*
X109314317Y-114151149D01*
X109373126Y-114396110D01*
X109400403Y-114461962D01*
X109469534Y-114628859D01*
X109601164Y-114843659D01*
X109764776Y-115035224D01*
X109956341Y-115198836D01*
X110171141Y-115330466D01*
X110403889Y-115426873D01*
X110648852Y-115485683D01*
X110900000Y-115505449D01*
X111151148Y-115485683D01*
X111396111Y-115426873D01*
X111628859Y-115330466D01*
X111843659Y-115198836D01*
X112035224Y-115035224D01*
X112198836Y-114843659D01*
X112330466Y-114628859D01*
X112426873Y-114396111D01*
X112485683Y-114151148D01*
X112505449Y-113900000D01*
X112505449Y-113899999D01*
X127494551Y-113899999D01*
X127514317Y-114151149D01*
X127573126Y-114396110D01*
X127600403Y-114461962D01*
X127669534Y-114628859D01*
X127801164Y-114843659D01*
X127964776Y-115035224D01*
X128156341Y-115198836D01*
X128371141Y-115330466D01*
X128603889Y-115426873D01*
X128848852Y-115485683D01*
X129100000Y-115505449D01*
X129351148Y-115485683D01*
X129596111Y-115426873D01*
X129828859Y-115330466D01*
X130043659Y-115198836D01*
X130235224Y-115035224D01*
X130398836Y-114843659D01*
X130530466Y-114628859D01*
X130626873Y-114396111D01*
X130685683Y-114151148D01*
X130705449Y-113900000D01*
X130705449Y-113899999D01*
X139294551Y-113899999D01*
X139314317Y-114151149D01*
X139373126Y-114396110D01*
X139400403Y-114461962D01*
X139469534Y-114628859D01*
X139601164Y-114843659D01*
X139764776Y-115035224D01*
X139956341Y-115198836D01*
X140171141Y-115330466D01*
X140403889Y-115426873D01*
X140648852Y-115485683D01*
X140900000Y-115505449D01*
X141151148Y-115485683D01*
X141396111Y-115426873D01*
X141628859Y-115330466D01*
X141843659Y-115198836D01*
X142035224Y-115035224D01*
X142198836Y-114843659D01*
X142330466Y-114628859D01*
X142426873Y-114396111D01*
X142485683Y-114151148D01*
X142505449Y-113900000D01*
X142505449Y-113899999D01*
X157494551Y-113899999D01*
X157514317Y-114151149D01*
X157573126Y-114396110D01*
X157600403Y-114461962D01*
X157669534Y-114628859D01*
X157801164Y-114843659D01*
X157964776Y-115035224D01*
X158156341Y-115198836D01*
X158371141Y-115330466D01*
X158603889Y-115426873D01*
X158848852Y-115485683D01*
X159100000Y-115505449D01*
X159351148Y-115485683D01*
X159596111Y-115426873D01*
X159828859Y-115330466D01*
X160043659Y-115198836D01*
X160235224Y-115035224D01*
X160398836Y-114843659D01*
X160530466Y-114628859D01*
X160626873Y-114396111D01*
X160685683Y-114151148D01*
X160705449Y-113900000D01*
X160705449Y-113899999D01*
X169294551Y-113899999D01*
X169314317Y-114151149D01*
X169373126Y-114396110D01*
X169400403Y-114461962D01*
X169469534Y-114628859D01*
X169601164Y-114843659D01*
X169764776Y-115035224D01*
X169956341Y-115198836D01*
X170171141Y-115330466D01*
X170403889Y-115426873D01*
X170648852Y-115485683D01*
X170900000Y-115505449D01*
X171151148Y-115485683D01*
X171396111Y-115426873D01*
X171628859Y-115330466D01*
X171843659Y-115198836D01*
X172035224Y-115035224D01*
X172198836Y-114843659D01*
X172330466Y-114628859D01*
X172426873Y-114396111D01*
X172485683Y-114151148D01*
X172505449Y-113900000D01*
X172505449Y-113899999D01*
X187494551Y-113899999D01*
X187514317Y-114151149D01*
X187573126Y-114396110D01*
X187600403Y-114461962D01*
X187669534Y-114628859D01*
X187801164Y-114843659D01*
X187964776Y-115035224D01*
X188156341Y-115198836D01*
X188371141Y-115330466D01*
X188603889Y-115426873D01*
X188848852Y-115485683D01*
X189100000Y-115505449D01*
X189351148Y-115485683D01*
X189596111Y-115426873D01*
X189828859Y-115330466D01*
X190043659Y-115198836D01*
X190235224Y-115035224D01*
X190398836Y-114843659D01*
X190530466Y-114628859D01*
X190626873Y-114396111D01*
X190685683Y-114151148D01*
X190705449Y-113900000D01*
X190685683Y-113648852D01*
X190626873Y-113403889D01*
X190530466Y-113171141D01*
X190398836Y-112956341D01*
X190235224Y-112764776D01*
X190043659Y-112601164D01*
X189828859Y-112469534D01*
X189712485Y-112421330D01*
X189596110Y-112373126D01*
X189351149Y-112314317D01*
X189100000Y-112294551D01*
X188848850Y-112314317D01*
X188603889Y-112373126D01*
X188371139Y-112469535D01*
X188156342Y-112601163D01*
X187964776Y-112764776D01*
X187801163Y-112956342D01*
X187669535Y-113171139D01*
X187573126Y-113403889D01*
X187514317Y-113648850D01*
X187494551Y-113899999D01*
X172505449Y-113899999D01*
X172485683Y-113648852D01*
X172426873Y-113403889D01*
X172330466Y-113171141D01*
X172198836Y-112956341D01*
X172035224Y-112764776D01*
X171843659Y-112601164D01*
X171628859Y-112469534D01*
X171512485Y-112421330D01*
X171396110Y-112373126D01*
X171151149Y-112314317D01*
X170900000Y-112294551D01*
X170648850Y-112314317D01*
X170403889Y-112373126D01*
X170171139Y-112469535D01*
X169956342Y-112601163D01*
X169764776Y-112764776D01*
X169601163Y-112956342D01*
X169469535Y-113171139D01*
X169373126Y-113403889D01*
X169314317Y-113648850D01*
X169294551Y-113899999D01*
X160705449Y-113899999D01*
X160685683Y-113648852D01*
X160626873Y-113403889D01*
X160530466Y-113171141D01*
X160398836Y-112956341D01*
X160235224Y-112764776D01*
X160043659Y-112601164D01*
X159828859Y-112469534D01*
X159712485Y-112421330D01*
X159596110Y-112373126D01*
X159351149Y-112314317D01*
X159100000Y-112294551D01*
X158848850Y-112314317D01*
X158603889Y-112373126D01*
X158371139Y-112469535D01*
X158156342Y-112601163D01*
X157964776Y-112764776D01*
X157801163Y-112956342D01*
X157669535Y-113171139D01*
X157573126Y-113403889D01*
X157514317Y-113648850D01*
X157494551Y-113899999D01*
X142505449Y-113899999D01*
X142485683Y-113648852D01*
X142426873Y-113403889D01*
X142330466Y-113171141D01*
X142198836Y-112956341D01*
X142035224Y-112764776D01*
X141843659Y-112601164D01*
X141628859Y-112469534D01*
X141512485Y-112421330D01*
X141396110Y-112373126D01*
X141151149Y-112314317D01*
X140900000Y-112294551D01*
X140648850Y-112314317D01*
X140403889Y-112373126D01*
X140171139Y-112469535D01*
X139956342Y-112601163D01*
X139764776Y-112764776D01*
X139601163Y-112956342D01*
X139469535Y-113171139D01*
X139373126Y-113403889D01*
X139314317Y-113648850D01*
X139294551Y-113899999D01*
X130705449Y-113899999D01*
X130685683Y-113648852D01*
X130626873Y-113403889D01*
X130530466Y-113171141D01*
X130398836Y-112956341D01*
X130235224Y-112764776D01*
X130043659Y-112601164D01*
X129828859Y-112469534D01*
X129712485Y-112421330D01*
X129596110Y-112373126D01*
X129351149Y-112314317D01*
X129100000Y-112294551D01*
X128848850Y-112314317D01*
X128603889Y-112373126D01*
X128371139Y-112469535D01*
X128156342Y-112601163D01*
X127964776Y-112764776D01*
X127801163Y-112956342D01*
X127669535Y-113171139D01*
X127573126Y-113403889D01*
X127514317Y-113648850D01*
X127494551Y-113899999D01*
X112505449Y-113899999D01*
X112485683Y-113648852D01*
X112426873Y-113403889D01*
X112330466Y-113171141D01*
X112198836Y-112956341D01*
X112035224Y-112764776D01*
X111843659Y-112601164D01*
X111628859Y-112469534D01*
X111512485Y-112421330D01*
X111396110Y-112373126D01*
X111151149Y-112314317D01*
X110900000Y-112294551D01*
X110648850Y-112314317D01*
X110403889Y-112373126D01*
X110171139Y-112469535D01*
X109956342Y-112601163D01*
X109764776Y-112764776D01*
X109601163Y-112956342D01*
X109469535Y-113171139D01*
X109373126Y-113403889D01*
X109314317Y-113648850D01*
X109294551Y-113899999D01*
X100027800Y-113899999D01*
X100007694Y-103847399D01*
X100007823Y-103841588D01*
X100008496Y-103827030D01*
X100018166Y-103630200D01*
X100019200Y-103619217D01*
X100044611Y-103437054D01*
X100044722Y-103436286D01*
X100071950Y-103252729D01*
X100073890Y-103242595D01*
X100116526Y-103061318D01*
X100116837Y-103060037D01*
X100161405Y-102882111D01*
X100164091Y-102872922D01*
X100223572Y-102695457D01*
X100224270Y-102693442D01*
X100285699Y-102521759D01*
X100288996Y-102513497D01*
X100364713Y-102342015D01*
X100366051Y-102339089D01*
X100443727Y-102174855D01*
X100447452Y-102167612D01*
X100538864Y-102003497D01*
X100540745Y-102000243D01*
X100634036Y-101844598D01*
X100638034Y-101838363D01*
X100744270Y-101683278D01*
X100746899Y-101679590D01*
X100854909Y-101533954D01*
X100859011Y-101528728D01*
X100979239Y-101383944D01*
X100982577Y-101380097D01*
X101104340Y-101245752D01*
X101108437Y-101241450D01*
X101241450Y-101108437D01*
X101245752Y-101104340D01*
X101380097Y-100982577D01*
X101383944Y-100979239D01*
X101528728Y-100859011D01*
X101533954Y-100854909D01*
X101679590Y-100746899D01*
X101683278Y-100744270D01*
X101838363Y-100638034D01*
X101844598Y-100634036D01*
X102000243Y-100540745D01*
X102003497Y-100538864D01*
X102167612Y-100447452D01*
X102174855Y-100443727D01*
X102339098Y-100366046D01*
X102342018Y-100364712D01*
X102406007Y-100336458D01*
X102513497Y-100288996D01*
X102521759Y-100285699D01*
X102693442Y-100224270D01*
X102695457Y-100223572D01*
X102872922Y-100164091D01*
X102882111Y-100161405D01*
X103060037Y-100116837D01*
X103061318Y-100116526D01*
X103242595Y-100073890D01*
X103252729Y-100071950D01*
X103436286Y-100044722D01*
X103437054Y-100044611D01*
X103619217Y-100019200D01*
X103630200Y-100018166D01*
X103826898Y-100008502D01*
X103991674Y-100000884D01*
X103997146Y-100000632D01*
X104002872Y-100000500D01*
X110065892Y-100000500D01*
X110067758Y-100000000D01*
X111926336Y-100000000D01*
X111928039Y-100000500D01*
G37*
%TD.AperFunction*%
%TD*%
%TA.AperFunction,Conductor*%
%TO.N,GND*%
G36*
X125000000Y-62451855D02*
G01*
X124998738Y-62469502D01*
X124994353Y-62499999D01*
X124998738Y-62530498D01*
X125000000Y-62548145D01*
X125000000Y-63000000D01*
X124000000Y-63000000D01*
X124000000Y-62548145D01*
X124001262Y-62530498D01*
X124005647Y-62500000D01*
X124001261Y-62469500D01*
X124000000Y-62451855D01*
X124000000Y-62000000D01*
X125000000Y-62000000D01*
X125000000Y-62451855D01*
G37*
%TD.AperFunction*%
%TD*%
%TA.AperFunction,Conductor*%
%TO.N,GND*%
G36*
X176000000Y-62451855D02*
G01*
X175998738Y-62469502D01*
X175994353Y-62499999D01*
X175998738Y-62530498D01*
X176000000Y-62548145D01*
X176000000Y-63000000D01*
X175000000Y-63000000D01*
X175000000Y-62548145D01*
X175001262Y-62530498D01*
X175005647Y-62500000D01*
X175001261Y-62469500D01*
X175000000Y-62451855D01*
X175000000Y-62000000D01*
X176000000Y-62000000D01*
X176000000Y-62451855D01*
G37*
%TD.AperFunction*%
%TD*%
%TA.AperFunction,Conductor*%
%TO.N,GND*%
G36*
X111411987Y-63000500D02*
G01*
X111428039Y-63000500D01*
X111571961Y-63000500D01*
X111588013Y-63000500D01*
X111591491Y-63000000D01*
X113408509Y-63000000D01*
X113411987Y-63000500D01*
X113428039Y-63000500D01*
X113571961Y-63000500D01*
X113588013Y-63000500D01*
X113591491Y-63000000D01*
X115408509Y-63000000D01*
X115411987Y-63000500D01*
X115428039Y-63000500D01*
X115571961Y-63000500D01*
X115588013Y-63000500D01*
X115591491Y-63000000D01*
X117408509Y-63000000D01*
X117411987Y-63000500D01*
X117428039Y-63000500D01*
X117571961Y-63000500D01*
X117588013Y-63000500D01*
X117591491Y-63000000D01*
X119408509Y-63000000D01*
X119411987Y-63000500D01*
X119428039Y-63000500D01*
X119571961Y-63000500D01*
X119588013Y-63000500D01*
X119591491Y-63000000D01*
X121408509Y-63000000D01*
X121411987Y-63000500D01*
X121428039Y-63000500D01*
X121571961Y-63000500D01*
X121588013Y-63000500D01*
X121591491Y-63000000D01*
X123408509Y-63000000D01*
X123411987Y-63000500D01*
X123428039Y-63000500D01*
X123571961Y-63000500D01*
X123588013Y-63000500D01*
X123591491Y-63000000D01*
X124000000Y-63000000D01*
X125000000Y-63000000D01*
X125408509Y-63000000D01*
X125411987Y-63000500D01*
X125428039Y-63000500D01*
X125571961Y-63000500D01*
X125588013Y-63000500D01*
X125591491Y-63000000D01*
X127115917Y-63000000D01*
X127119715Y-63000500D01*
X127134108Y-63000500D01*
X127199901Y-63000500D01*
X127200000Y-63000500D01*
X127200500Y-63000500D01*
X128799500Y-63000500D01*
X128800099Y-63000500D01*
X128865892Y-63000500D01*
X128880285Y-63000500D01*
X128884083Y-63000000D01*
X130408509Y-63000000D01*
X130411987Y-63000500D01*
X130428039Y-63000500D01*
X130571961Y-63000500D01*
X130588013Y-63000500D01*
X130591491Y-63000000D01*
X132408509Y-63000000D01*
X132411987Y-63000500D01*
X132428039Y-63000500D01*
X132571961Y-63000500D01*
X132588013Y-63000500D01*
X132591491Y-63000000D01*
X134408509Y-63000000D01*
X134411987Y-63000500D01*
X134428039Y-63000500D01*
X134571961Y-63000500D01*
X134588013Y-63000500D01*
X134591491Y-63000000D01*
X136408509Y-63000000D01*
X136411987Y-63000500D01*
X136428039Y-63000500D01*
X136571961Y-63000500D01*
X136588013Y-63000500D01*
X136591491Y-63000000D01*
X138408509Y-63000000D01*
X138411987Y-63000500D01*
X138428039Y-63000500D01*
X138571961Y-63000500D01*
X138588013Y-63000500D01*
X138591491Y-63000000D01*
X140408509Y-63000000D01*
X140411987Y-63000500D01*
X140428039Y-63000500D01*
X140571961Y-63000500D01*
X140588013Y-63000500D01*
X140591491Y-63000000D01*
X142408509Y-63000000D01*
X142411987Y-63000500D01*
X142428039Y-63000500D01*
X142571961Y-63000500D01*
X142588013Y-63000500D01*
X142591491Y-63000000D01*
X144408509Y-63000000D01*
X144411987Y-63000500D01*
X144428039Y-63000500D01*
X144571961Y-63000500D01*
X144588013Y-63000500D01*
X144591491Y-63000000D01*
X145915917Y-63000000D01*
X145919715Y-63000500D01*
X145934108Y-63000500D01*
X145999901Y-63000500D01*
X146000000Y-63000500D01*
X146000500Y-63000500D01*
X153999500Y-63000500D01*
X154000099Y-63000500D01*
X154065892Y-63000500D01*
X154080285Y-63000500D01*
X154084083Y-63000000D01*
X155408509Y-63000000D01*
X155411987Y-63000500D01*
X155428039Y-63000500D01*
X155571961Y-63000500D01*
X155588013Y-63000500D01*
X155591491Y-63000000D01*
X157408509Y-63000000D01*
X157411987Y-63000500D01*
X157428039Y-63000500D01*
X157571961Y-63000500D01*
X157588013Y-63000500D01*
X157591491Y-63000000D01*
X159408509Y-63000000D01*
X159411987Y-63000500D01*
X159428039Y-63000500D01*
X159571961Y-63000500D01*
X159588013Y-63000500D01*
X159591491Y-63000000D01*
X161408509Y-63000000D01*
X161411987Y-63000500D01*
X161428039Y-63000500D01*
X161571961Y-63000500D01*
X161588013Y-63000500D01*
X161591491Y-63000000D01*
X163408509Y-63000000D01*
X163411987Y-63000500D01*
X163428039Y-63000500D01*
X163571961Y-63000500D01*
X163588013Y-63000500D01*
X163591491Y-63000000D01*
X165408509Y-63000000D01*
X165411987Y-63000500D01*
X165428039Y-63000500D01*
X165571961Y-63000500D01*
X165588013Y-63000500D01*
X165591491Y-63000000D01*
X167408509Y-63000000D01*
X167411987Y-63000500D01*
X167428039Y-63000500D01*
X167571961Y-63000500D01*
X167588013Y-63000500D01*
X167591491Y-63000000D01*
X169408509Y-63000000D01*
X169411987Y-63000500D01*
X169428039Y-63000500D01*
X169571961Y-63000500D01*
X169588013Y-63000500D01*
X169591491Y-63000000D01*
X171115917Y-63000000D01*
X171119715Y-63000500D01*
X171134108Y-63000500D01*
X171199901Y-63000500D01*
X171200000Y-63000500D01*
X171200500Y-63000500D01*
X172799500Y-63000500D01*
X172800099Y-63000500D01*
X172865892Y-63000500D01*
X172880285Y-63000500D01*
X172884083Y-63000000D01*
X174408509Y-63000000D01*
X174411987Y-63000500D01*
X174428039Y-63000500D01*
X174571961Y-63000500D01*
X174588013Y-63000500D01*
X174591491Y-63000000D01*
X175000000Y-63000000D01*
X176000000Y-63000000D01*
X176408509Y-63000000D01*
X176411987Y-63000500D01*
X176428039Y-63000500D01*
X176571961Y-63000500D01*
X176588013Y-63000500D01*
X176591491Y-63000000D01*
X178408509Y-63000000D01*
X178411987Y-63000500D01*
X178428039Y-63000500D01*
X178571961Y-63000500D01*
X178588013Y-63000500D01*
X178591491Y-63000000D01*
X180408509Y-63000000D01*
X180411987Y-63000500D01*
X180428039Y-63000500D01*
X180571961Y-63000500D01*
X180588013Y-63000500D01*
X180591491Y-63000000D01*
X182408509Y-63000000D01*
X182411987Y-63000500D01*
X182428039Y-63000500D01*
X182571961Y-63000500D01*
X182588013Y-63000500D01*
X182591491Y-63000000D01*
X184408509Y-63000000D01*
X184411987Y-63000500D01*
X184428039Y-63000500D01*
X184571961Y-63000500D01*
X184588013Y-63000500D01*
X184591491Y-63000000D01*
X186408509Y-63000000D01*
X186411987Y-63000500D01*
X186428039Y-63000500D01*
X186571961Y-63000500D01*
X186588013Y-63000500D01*
X186591491Y-63000000D01*
X188408509Y-63000000D01*
X188411987Y-63000500D01*
X188428039Y-63000500D01*
X188571961Y-63000500D01*
X188588013Y-63000500D01*
X188591491Y-63000000D01*
X189915917Y-63000000D01*
X189919715Y-63000500D01*
X189934108Y-63000500D01*
X189999901Y-63000500D01*
X190000000Y-63000500D01*
X190000500Y-63000500D01*
X195997128Y-63000500D01*
X196002855Y-63000632D01*
X196172849Y-63008491D01*
X196375301Y-63018436D01*
X196563374Y-63044671D01*
X196752373Y-63072707D01*
X196939341Y-63116681D01*
X197122527Y-63162566D01*
X197305543Y-63223907D01*
X197482431Y-63287199D01*
X197657980Y-63364712D01*
X197660909Y-63366051D01*
X197747263Y-63406892D01*
X197825119Y-63443715D01*
X197832411Y-63447465D01*
X197929135Y-63501341D01*
X197996435Y-63538827D01*
X197999810Y-63540777D01*
X198155371Y-63634017D01*
X198161670Y-63638058D01*
X198316699Y-63744256D01*
X198320459Y-63746935D01*
X198466009Y-63854882D01*
X198471305Y-63859040D01*
X198616009Y-63979200D01*
X198619947Y-63982617D01*
X198754206Y-64104303D01*
X198758590Y-64108478D01*
X198891520Y-64241408D01*
X198895698Y-64245795D01*
X199017375Y-64380045D01*
X199020805Y-64383998D01*
X199140951Y-64528684D01*
X199145124Y-64534000D01*
X199253041Y-64679509D01*
X199255742Y-64683299D01*
X199361940Y-64838328D01*
X199365999Y-64844656D01*
X199459200Y-65000153D01*
X199461171Y-65003563D01*
X199552525Y-65167573D01*
X199556291Y-65174895D01*
X199633963Y-65339119D01*
X199635302Y-65342050D01*
X199712800Y-65517567D01*
X199776093Y-65694459D01*
X199837431Y-65877467D01*
X199883313Y-66060638D01*
X199927293Y-66247629D01*
X199955328Y-66436631D01*
X199981562Y-66624693D01*
X199991508Y-66827141D01*
X199999368Y-66997145D01*
X199999500Y-67002872D01*
X199999500Y-70948431D01*
X199990061Y-70995884D01*
X199963181Y-71036112D01*
X197016995Y-73982295D01*
X197016819Y-73982413D01*
X196999617Y-73999615D01*
X196999457Y-73999997D01*
X196999461Y-74024665D01*
X196999500Y-74024855D01*
X196999500Y-87975145D01*
X196999461Y-87975334D01*
X196999458Y-87999998D01*
X196999458Y-87999999D01*
X196999458Y-88000000D01*
X196999520Y-88000150D01*
X196999549Y-88000295D01*
X196999576Y-88000285D01*
X196999616Y-88000382D01*
X197010962Y-88011670D01*
X197011187Y-88011895D01*
X199963181Y-90963888D01*
X199990061Y-91004116D01*
X199999500Y-91051569D01*
X199999500Y-94997128D01*
X199999368Y-95002855D01*
X199991507Y-95172865D01*
X199981562Y-95375305D01*
X199955326Y-95563384D01*
X199927293Y-95752367D01*
X199883309Y-95939377D01*
X199837432Y-96122528D01*
X199776084Y-96305564D01*
X199712804Y-96482421D01*
X199635295Y-96657962D01*
X199633956Y-96660891D01*
X199556291Y-96825102D01*
X199552525Y-96832425D01*
X199461171Y-96996435D01*
X199459200Y-96999845D01*
X199365999Y-97155342D01*
X199361940Y-97161670D01*
X199255742Y-97316699D01*
X199253041Y-97320489D01*
X199145135Y-97465984D01*
X199140935Y-97471334D01*
X199020851Y-97615947D01*
X199017331Y-97620004D01*
X198895717Y-97754183D01*
X198891520Y-97758590D01*
X198758590Y-97891520D01*
X198754183Y-97895717D01*
X198620004Y-98017331D01*
X198615947Y-98020851D01*
X198471334Y-98140935D01*
X198465984Y-98145135D01*
X198320489Y-98253041D01*
X198316699Y-98255742D01*
X198161670Y-98361940D01*
X198155342Y-98365999D01*
X197999845Y-98459200D01*
X197996435Y-98461171D01*
X197832425Y-98552525D01*
X197825102Y-98556291D01*
X197660891Y-98633956D01*
X197657962Y-98635295D01*
X197482421Y-98712804D01*
X197305564Y-98776084D01*
X197122528Y-98837432D01*
X196939377Y-98883309D01*
X196752367Y-98927293D01*
X196563384Y-98955326D01*
X196375305Y-98981562D01*
X196172865Y-98991507D01*
X196002855Y-98999368D01*
X195997128Y-98999500D01*
X189919715Y-98999500D01*
X189915917Y-99000000D01*
X188091491Y-99000000D01*
X188088013Y-98999500D01*
X188071961Y-98999500D01*
X187928039Y-98999500D01*
X187911987Y-98999500D01*
X187908509Y-99000000D01*
X186091491Y-99000000D01*
X186088013Y-98999500D01*
X186071961Y-98999500D01*
X185928039Y-98999500D01*
X185911987Y-98999500D01*
X185908509Y-99000000D01*
X184091491Y-99000000D01*
X184088013Y-98999500D01*
X184071961Y-98999500D01*
X183928039Y-98999500D01*
X183911987Y-98999500D01*
X183908509Y-99000000D01*
X182091491Y-99000000D01*
X182088013Y-98999500D01*
X182071961Y-98999500D01*
X181928039Y-98999500D01*
X181911987Y-98999500D01*
X181908509Y-99000000D01*
X180091491Y-99000000D01*
X180088013Y-98999500D01*
X180071961Y-98999500D01*
X179928039Y-98999500D01*
X179911987Y-98999500D01*
X179908509Y-99000000D01*
X178091491Y-99000000D01*
X178088013Y-98999500D01*
X178071961Y-98999500D01*
X177928039Y-98999500D01*
X177911987Y-98999500D01*
X177908509Y-99000000D01*
X176091491Y-99000000D01*
X176088013Y-98999500D01*
X176071961Y-98999500D01*
X175928039Y-98999500D01*
X175911987Y-98999500D01*
X175908509Y-99000000D01*
X174091491Y-99000000D01*
X174088013Y-98999500D01*
X174071961Y-98999500D01*
X173928039Y-98999500D01*
X173911987Y-98999500D01*
X173908509Y-99000000D01*
X172091491Y-99000000D01*
X172088013Y-98999500D01*
X172071961Y-98999500D01*
X171928039Y-98999500D01*
X171911987Y-98999500D01*
X171908509Y-99000000D01*
X170084083Y-99000000D01*
X170080285Y-98999500D01*
X170065892Y-98999500D01*
X170000099Y-98999500D01*
X160000500Y-98999500D01*
X160000000Y-98999500D01*
X159934108Y-98999500D01*
X159919715Y-98999500D01*
X159915917Y-99000000D01*
X158091491Y-99000000D01*
X158088013Y-98999500D01*
X158071961Y-98999500D01*
X157928039Y-98999500D01*
X157911987Y-98999500D01*
X157908509Y-99000000D01*
X156091491Y-99000000D01*
X156088013Y-98999500D01*
X156071961Y-98999500D01*
X155928039Y-98999500D01*
X155911987Y-98999500D01*
X155908509Y-99000000D01*
X154091491Y-99000000D01*
X154088013Y-98999500D01*
X154071961Y-98999500D01*
X153928039Y-98999500D01*
X153911987Y-98999500D01*
X153908509Y-99000000D01*
X152091491Y-99000000D01*
X152088013Y-98999500D01*
X152071961Y-98999500D01*
X151928039Y-98999500D01*
X151911987Y-98999500D01*
X151908509Y-99000000D01*
X150091491Y-99000000D01*
X150088013Y-98999500D01*
X150071961Y-98999500D01*
X149928039Y-98999500D01*
X149911987Y-98999500D01*
X149908509Y-99000000D01*
X148091491Y-99000000D01*
X148088013Y-98999500D01*
X148071961Y-98999500D01*
X147928039Y-98999500D01*
X147911987Y-98999500D01*
X147908509Y-99000000D01*
X146091491Y-99000000D01*
X146088013Y-98999500D01*
X146071961Y-98999500D01*
X145928039Y-98999500D01*
X145911987Y-98999500D01*
X145908509Y-99000000D01*
X144091491Y-99000000D01*
X144088013Y-98999500D01*
X144071961Y-98999500D01*
X143928039Y-98999500D01*
X143911987Y-98999500D01*
X143908509Y-99000000D01*
X142091491Y-99000000D01*
X142088013Y-98999500D01*
X142071961Y-98999500D01*
X141928039Y-98999500D01*
X141911987Y-98999500D01*
X141908509Y-99000000D01*
X140084083Y-99000000D01*
X140080285Y-98999500D01*
X140065892Y-98999500D01*
X140000099Y-98999500D01*
X130000500Y-98999500D01*
X130000000Y-98999500D01*
X129934108Y-98999500D01*
X129919715Y-98999500D01*
X129915917Y-99000000D01*
X128091491Y-99000000D01*
X128088013Y-98999500D01*
X128071961Y-98999500D01*
X127928039Y-98999500D01*
X127911987Y-98999500D01*
X127908509Y-99000000D01*
X126091491Y-99000000D01*
X126088013Y-98999500D01*
X126071961Y-98999500D01*
X125928039Y-98999500D01*
X125911987Y-98999500D01*
X125908509Y-99000000D01*
X124091491Y-99000000D01*
X124088013Y-98999500D01*
X124071961Y-98999500D01*
X123928039Y-98999500D01*
X123911987Y-98999500D01*
X123908509Y-99000000D01*
X122091491Y-99000000D01*
X122088013Y-98999500D01*
X122071961Y-98999500D01*
X121928039Y-98999500D01*
X121911987Y-98999500D01*
X121908509Y-99000000D01*
X120091491Y-99000000D01*
X120088013Y-98999500D01*
X120071961Y-98999500D01*
X119928039Y-98999500D01*
X119911987Y-98999500D01*
X119908509Y-99000000D01*
X118091491Y-99000000D01*
X118088013Y-98999500D01*
X118071961Y-98999500D01*
X117928039Y-98999500D01*
X117911987Y-98999500D01*
X117908509Y-99000000D01*
X116091491Y-99000000D01*
X116088013Y-98999500D01*
X116071961Y-98999500D01*
X115928039Y-98999500D01*
X115911987Y-98999500D01*
X115908509Y-99000000D01*
X114091491Y-99000000D01*
X114088013Y-98999500D01*
X114071961Y-98999500D01*
X113928039Y-98999500D01*
X113911987Y-98999500D01*
X113908509Y-99000000D01*
X112091491Y-99000000D01*
X112088013Y-98999500D01*
X112071961Y-98999500D01*
X111928039Y-98999500D01*
X111926336Y-99000000D01*
X110067758Y-99000000D01*
X110065892Y-98999500D01*
X110000099Y-98999500D01*
X107002872Y-98999500D01*
X106997145Y-98999368D01*
X106827141Y-98991508D01*
X106624693Y-98981562D01*
X106436631Y-98955328D01*
X106247629Y-98927293D01*
X106060638Y-98883313D01*
X105877467Y-98837431D01*
X105694459Y-98776093D01*
X105517567Y-98712800D01*
X105342050Y-98635302D01*
X105339119Y-98633963D01*
X105174895Y-98556291D01*
X105167573Y-98552525D01*
X105003563Y-98461171D01*
X105000153Y-98459200D01*
X104980648Y-98447509D01*
X104844645Y-98365992D01*
X104838328Y-98361940D01*
X104683299Y-98255742D01*
X104679509Y-98253041D01*
X104534000Y-98145124D01*
X104528684Y-98140951D01*
X104383998Y-98020805D01*
X104380045Y-98017375D01*
X104245795Y-97895698D01*
X104241408Y-97891520D01*
X104108478Y-97758590D01*
X104104303Y-97754206D01*
X103982617Y-97619947D01*
X103979200Y-97616009D01*
X103859040Y-97471305D01*
X103854882Y-97466009D01*
X103746935Y-97320459D01*
X103744256Y-97316699D01*
X103638058Y-97161670D01*
X103634017Y-97155371D01*
X103540777Y-96999810D01*
X103538827Y-96996435D01*
X103512261Y-96948740D01*
X103447465Y-96832411D01*
X103443715Y-96825119D01*
X103406892Y-96747263D01*
X103366051Y-96660909D01*
X103364712Y-96657980D01*
X103287199Y-96482431D01*
X103223907Y-96305543D01*
X103162566Y-96122527D01*
X103116674Y-95939311D01*
X103072708Y-95752378D01*
X103044671Y-95563374D01*
X103018436Y-95375301D01*
X103008484Y-95172702D01*
X103000632Y-95002855D01*
X103000500Y-94997128D01*
X103000500Y-91024856D01*
X103000553Y-91024585D01*
X103000541Y-91000002D01*
X103000542Y-91000000D01*
X103000538Y-90999991D01*
X103000530Y-90999970D01*
X103000385Y-90999620D01*
X103000383Y-90999618D01*
X103000383Y-90999617D01*
X103000381Y-90999616D01*
X102983339Y-90982488D01*
X102982904Y-90982197D01*
X100036819Y-88036111D01*
X100009939Y-87995883D01*
X100000500Y-87948430D01*
X100000500Y-81900000D01*
X106899459Y-81900000D01*
X106899500Y-81900099D01*
X106899616Y-81900382D01*
X106899617Y-81900383D01*
X106899618Y-81900384D01*
X106899808Y-81900461D01*
X106900000Y-81900541D01*
X106900002Y-81900539D01*
X106924616Y-81900524D01*
X106924616Y-81900528D01*
X106924760Y-81900500D01*
X133975500Y-81900500D01*
X134037500Y-81917113D01*
X134082887Y-81962500D01*
X134099500Y-82024500D01*
X134099500Y-91075240D01*
X134099459Y-91075446D01*
X134099459Y-91100000D01*
X134099500Y-91100099D01*
X134099616Y-91100382D01*
X134099617Y-91100383D01*
X134099618Y-91100384D01*
X134099808Y-91100462D01*
X134100000Y-91100541D01*
X134100002Y-91100539D01*
X134124616Y-91100524D01*
X134124616Y-91100528D01*
X134124760Y-91100500D01*
X135875240Y-91100500D01*
X135875383Y-91100528D01*
X135875384Y-91100524D01*
X135899997Y-91100539D01*
X135900000Y-91100541D01*
X135900383Y-91100383D01*
X135900500Y-91100099D01*
X135900541Y-91100000D01*
X164099459Y-91100000D01*
X164099500Y-91100099D01*
X164099616Y-91100382D01*
X164099617Y-91100383D01*
X164099618Y-91100384D01*
X164099808Y-91100462D01*
X164100000Y-91100541D01*
X164100002Y-91100539D01*
X164124616Y-91100524D01*
X164124616Y-91100528D01*
X164124760Y-91100500D01*
X165875240Y-91100500D01*
X165875383Y-91100528D01*
X165875384Y-91100524D01*
X165899997Y-91100539D01*
X165900000Y-91100541D01*
X165900383Y-91100383D01*
X165900500Y-91100099D01*
X165900541Y-91100000D01*
X165900541Y-91075446D01*
X165900500Y-91075240D01*
X165900500Y-82024500D01*
X165917113Y-81962500D01*
X165962500Y-81917113D01*
X166024500Y-81900500D01*
X193075240Y-81900500D01*
X193075383Y-81900528D01*
X193075384Y-81900524D01*
X193099997Y-81900539D01*
X193100000Y-81900541D01*
X193100383Y-81900383D01*
X193100500Y-81900099D01*
X193100541Y-81900000D01*
X193100541Y-81875446D01*
X193100500Y-81875240D01*
X193100500Y-80124760D01*
X193100528Y-80124616D01*
X193100524Y-80124616D01*
X193100539Y-80100002D01*
X193100541Y-80100000D01*
X193100461Y-80099808D01*
X193100384Y-80099618D01*
X193100380Y-80099614D01*
X193100194Y-80099538D01*
X193100002Y-80099459D01*
X193075446Y-80099459D01*
X193075240Y-80099500D01*
X166024500Y-80099500D01*
X165962500Y-80082887D01*
X165917113Y-80037500D01*
X165900500Y-79975500D01*
X165900500Y-70924760D01*
X165900528Y-70924616D01*
X165900524Y-70924616D01*
X165900539Y-70900002D01*
X165900541Y-70900000D01*
X165900461Y-70899808D01*
X165900384Y-70899618D01*
X165900380Y-70899614D01*
X165900194Y-70899538D01*
X165900002Y-70899459D01*
X165875446Y-70899459D01*
X165875240Y-70899500D01*
X164124760Y-70899500D01*
X164124554Y-70899459D01*
X164099998Y-70899459D01*
X164099807Y-70899538D01*
X164099619Y-70899615D01*
X164099615Y-70899618D01*
X164099459Y-70899999D01*
X164099476Y-70924616D01*
X164099471Y-70924616D01*
X164099500Y-70924760D01*
X164099500Y-91075240D01*
X164099459Y-91075446D01*
X164099459Y-91100000D01*
X135900541Y-91100000D01*
X135900541Y-91075446D01*
X135900500Y-91075240D01*
X135900500Y-70924760D01*
X135900528Y-70924616D01*
X135900524Y-70924616D01*
X135900539Y-70900002D01*
X135900541Y-70900000D01*
X135900461Y-70899808D01*
X135900384Y-70899618D01*
X135900380Y-70899614D01*
X135900194Y-70899538D01*
X135900002Y-70899459D01*
X135875446Y-70899459D01*
X135875240Y-70899500D01*
X134124760Y-70899500D01*
X134124554Y-70899459D01*
X134099998Y-70899459D01*
X134099807Y-70899538D01*
X134099619Y-70899615D01*
X134099615Y-70899618D01*
X134099459Y-70899999D01*
X134099476Y-70924616D01*
X134099471Y-70924616D01*
X134099500Y-70924760D01*
X134099500Y-79975500D01*
X134082887Y-80037500D01*
X134037500Y-80082887D01*
X133975500Y-80099500D01*
X106924760Y-80099500D01*
X106924554Y-80099459D01*
X106899998Y-80099459D01*
X106899807Y-80099538D01*
X106899619Y-80099615D01*
X106899615Y-80099618D01*
X106899459Y-80099999D01*
X106899476Y-80124616D01*
X106899471Y-80124616D01*
X106899500Y-80124760D01*
X106899500Y-81875240D01*
X106899459Y-81875446D01*
X106899459Y-81900000D01*
X100000500Y-81900000D01*
X100000500Y-74051570D01*
X100009939Y-74004117D01*
X100036819Y-73963889D01*
X100105664Y-73895043D01*
X102982519Y-71018186D01*
X102982644Y-71018104D01*
X103000381Y-71000383D01*
X103000383Y-71000383D01*
X103000383Y-71000381D01*
X103000386Y-71000379D01*
X103000541Y-71000005D01*
X103000541Y-71000002D01*
X103000542Y-71000000D01*
X103000541Y-70999997D01*
X103000582Y-70975557D01*
X103000500Y-70975144D01*
X103000500Y-67002872D01*
X103000632Y-66997145D01*
X103000676Y-66996185D01*
X103008502Y-66826907D01*
X103018437Y-66624688D01*
X103044671Y-66436631D01*
X103072705Y-66247633D01*
X103116689Y-66060626D01*
X103162565Y-65877475D01*
X103223922Y-65694413D01*
X103287193Y-65517580D01*
X103364713Y-65342015D01*
X103366037Y-65339119D01*
X103443727Y-65174855D01*
X103447452Y-65167612D01*
X103538864Y-65003497D01*
X103540745Y-65000243D01*
X103634036Y-64844598D01*
X103638034Y-64838363D01*
X103744270Y-64683278D01*
X103746899Y-64679590D01*
X103854909Y-64533954D01*
X103859011Y-64528728D01*
X103979239Y-64383944D01*
X103982577Y-64380097D01*
X104104340Y-64245752D01*
X104108437Y-64241450D01*
X104241450Y-64108437D01*
X104245752Y-64104340D01*
X104380097Y-63982577D01*
X104383944Y-63979239D01*
X104528728Y-63859011D01*
X104533954Y-63854909D01*
X104679590Y-63746899D01*
X104683278Y-63744270D01*
X104838363Y-63638034D01*
X104844598Y-63634036D01*
X105000243Y-63540745D01*
X105003497Y-63538864D01*
X105167612Y-63447452D01*
X105174855Y-63443727D01*
X105339126Y-63366033D01*
X105342018Y-63364712D01*
X105517580Y-63287193D01*
X105694413Y-63223922D01*
X105877475Y-63162565D01*
X106060626Y-63116689D01*
X106247633Y-63072705D01*
X106436651Y-63044667D01*
X106624688Y-63018437D01*
X106826907Y-63008502D01*
X106997144Y-63000632D01*
X107002872Y-63000500D01*
X110080285Y-63000500D01*
X110084083Y-63000000D01*
X111408509Y-63000000D01*
X111411987Y-63000500D01*
G37*
%TD.AperFunction*%
%TD*%
%TA.AperFunction,Conductor*%
%TO.N,GND*%
G36*
X181985148Y-50414852D02*
G01*
X181999500Y-50449500D01*
X181999500Y-51990156D01*
X181999459Y-51990362D01*
X181999459Y-51999999D01*
X181999459Y-52000000D01*
X181999465Y-52000015D01*
X181999483Y-52000104D01*
X181999500Y-52000098D01*
X181999500Y-52000099D01*
X181999617Y-52000383D01*
X182000000Y-52000541D01*
X182000002Y-52000539D01*
X182009672Y-52000534D01*
X182009843Y-52000500D01*
X189950500Y-52000500D01*
X189985148Y-52014852D01*
X189999500Y-52049500D01*
X189999500Y-61950500D01*
X189985148Y-61985148D01*
X189950500Y-61999500D01*
X189929588Y-61999500D01*
X189925791Y-62000000D01*
X188580709Y-62000000D01*
X188577232Y-61999500D01*
X188571961Y-61999500D01*
X188428039Y-61999500D01*
X188422768Y-61999500D01*
X188419291Y-62000000D01*
X186580709Y-62000000D01*
X186577232Y-61999500D01*
X186571961Y-61999500D01*
X186428039Y-61999500D01*
X186422768Y-61999500D01*
X186419291Y-62000000D01*
X184580709Y-62000000D01*
X184577232Y-61999500D01*
X184571961Y-61999500D01*
X184428039Y-61999500D01*
X184422768Y-61999500D01*
X184419291Y-62000000D01*
X182580709Y-62000000D01*
X182577232Y-61999500D01*
X182571961Y-61999500D01*
X182428039Y-61999500D01*
X182422768Y-61999500D01*
X182419291Y-62000000D01*
X180580709Y-62000000D01*
X180577232Y-61999500D01*
X180571961Y-61999500D01*
X180428039Y-61999500D01*
X180422768Y-61999500D01*
X180419291Y-62000000D01*
X178580709Y-62000000D01*
X178577232Y-61999500D01*
X178571961Y-61999500D01*
X178428039Y-61999500D01*
X178422768Y-61999500D01*
X178419291Y-62000000D01*
X176580709Y-62000000D01*
X176577232Y-61999500D01*
X176571961Y-61999500D01*
X176428039Y-61999500D01*
X176422768Y-61999500D01*
X176419291Y-62000000D01*
X174580709Y-62000000D01*
X174577232Y-61999500D01*
X174571961Y-61999500D01*
X174428039Y-61999500D01*
X174422768Y-61999500D01*
X174419291Y-62000000D01*
X172874209Y-62000000D01*
X172870412Y-61999500D01*
X172865892Y-61999500D01*
X172849500Y-61999500D01*
X172814852Y-61985148D01*
X172800500Y-61950500D01*
X172800500Y-56909843D01*
X172800534Y-56909672D01*
X172800539Y-56900002D01*
X172800541Y-56900000D01*
X172800383Y-56899617D01*
X172800099Y-56899500D01*
X172799999Y-56899459D01*
X172790362Y-56899459D01*
X172790156Y-56899500D01*
X171209844Y-56899500D01*
X171209638Y-56899459D01*
X171200001Y-56899459D01*
X171200000Y-56899459D01*
X171199901Y-56899500D01*
X171199759Y-56899558D01*
X171199616Y-56899617D01*
X171199459Y-56899999D01*
X171199465Y-56909672D01*
X171199500Y-56909843D01*
X171199500Y-61950500D01*
X171185148Y-61985148D01*
X171150500Y-61999500D01*
X171129588Y-61999500D01*
X171125791Y-62000000D01*
X169580709Y-62000000D01*
X169577232Y-61999500D01*
X169571961Y-61999500D01*
X169428039Y-61999500D01*
X169422768Y-61999500D01*
X169419291Y-62000000D01*
X167580709Y-62000000D01*
X167577232Y-61999500D01*
X167571961Y-61999500D01*
X167428039Y-61999500D01*
X167422768Y-61999500D01*
X167419291Y-62000000D01*
X165580709Y-62000000D01*
X165577232Y-61999500D01*
X165571961Y-61999500D01*
X165428039Y-61999500D01*
X165422768Y-61999500D01*
X165419291Y-62000000D01*
X163580709Y-62000000D01*
X163577232Y-61999500D01*
X163571961Y-61999500D01*
X163428039Y-61999500D01*
X163422768Y-61999500D01*
X163419291Y-62000000D01*
X161580709Y-62000000D01*
X161577232Y-61999500D01*
X161571961Y-61999500D01*
X161428039Y-61999500D01*
X161422768Y-61999500D01*
X161419291Y-62000000D01*
X159580709Y-62000000D01*
X159577232Y-61999500D01*
X159571961Y-61999500D01*
X159428039Y-61999500D01*
X159422768Y-61999500D01*
X159419291Y-62000000D01*
X157580709Y-62000000D01*
X157577232Y-61999500D01*
X157571961Y-61999500D01*
X157428039Y-61999500D01*
X157422768Y-61999500D01*
X157419291Y-62000000D01*
X155580709Y-62000000D01*
X155577232Y-61999500D01*
X155571961Y-61999500D01*
X155428039Y-61999500D01*
X155422768Y-61999500D01*
X155419291Y-62000000D01*
X154074209Y-62000000D01*
X154070412Y-61999500D01*
X154065892Y-61999500D01*
X154049500Y-61999500D01*
X154014852Y-61985148D01*
X154000500Y-61950500D01*
X154000500Y-52049500D01*
X154014852Y-52014852D01*
X154049500Y-52000500D01*
X161990157Y-52000500D01*
X161990327Y-52000534D01*
X161999997Y-52000539D01*
X162000000Y-52000541D01*
X162000383Y-52000383D01*
X162000500Y-52000099D01*
X162000500Y-52000098D01*
X162000526Y-52000108D01*
X162000535Y-52000013D01*
X162000541Y-52000000D01*
X162000540Y-51999998D01*
X162000541Y-51999997D01*
X162000541Y-51990362D01*
X162000500Y-51990156D01*
X162000500Y-50449500D01*
X162014852Y-50414852D01*
X162049500Y-50400500D01*
X181950500Y-50400500D01*
X181985148Y-50414852D01*
G37*
%TD.AperFunction*%
%TA.AperFunction,Conductor*%
G36*
X137985148Y-50414852D02*
G01*
X137999500Y-50449500D01*
X137999500Y-51990156D01*
X137999459Y-51990362D01*
X137999459Y-51999999D01*
X137999459Y-52000000D01*
X137999465Y-52000015D01*
X137999483Y-52000104D01*
X137999500Y-52000098D01*
X137999500Y-52000099D01*
X137999617Y-52000383D01*
X138000000Y-52000541D01*
X138000002Y-52000539D01*
X138009672Y-52000534D01*
X138009843Y-52000500D01*
X145950500Y-52000500D01*
X145985148Y-52014852D01*
X145999500Y-52049500D01*
X145999500Y-61950500D01*
X145985148Y-61985148D01*
X145950500Y-61999500D01*
X145929588Y-61999500D01*
X145925791Y-62000000D01*
X144580709Y-62000000D01*
X144577232Y-61999500D01*
X144571961Y-61999500D01*
X144428039Y-61999500D01*
X144422768Y-61999500D01*
X144419291Y-62000000D01*
X142580709Y-62000000D01*
X142577232Y-61999500D01*
X142571961Y-61999500D01*
X142428039Y-61999500D01*
X142422768Y-61999500D01*
X142419291Y-62000000D01*
X140580709Y-62000000D01*
X140577232Y-61999500D01*
X140571961Y-61999500D01*
X140428039Y-61999500D01*
X140422768Y-61999500D01*
X140419291Y-62000000D01*
X138580709Y-62000000D01*
X138577232Y-61999500D01*
X138571961Y-61999500D01*
X138428039Y-61999500D01*
X138422768Y-61999500D01*
X138419291Y-62000000D01*
X136580709Y-62000000D01*
X136577232Y-61999500D01*
X136571961Y-61999500D01*
X136428039Y-61999500D01*
X136422768Y-61999500D01*
X136419291Y-62000000D01*
X134580709Y-62000000D01*
X134577232Y-61999500D01*
X134571961Y-61999500D01*
X134428039Y-61999500D01*
X134422768Y-61999500D01*
X134419291Y-62000000D01*
X132580709Y-62000000D01*
X132577232Y-61999500D01*
X132571961Y-61999500D01*
X132428039Y-61999500D01*
X132422768Y-61999500D01*
X132419291Y-62000000D01*
X130580709Y-62000000D01*
X130577232Y-61999500D01*
X130571961Y-61999500D01*
X130428039Y-61999500D01*
X130422768Y-61999500D01*
X130419291Y-62000000D01*
X128874209Y-62000000D01*
X128870412Y-61999500D01*
X128865892Y-61999500D01*
X128849500Y-61999500D01*
X128814852Y-61985148D01*
X128800500Y-61950500D01*
X128800500Y-56909843D01*
X128800534Y-56909672D01*
X128800539Y-56900002D01*
X128800541Y-56900000D01*
X128800383Y-56899617D01*
X128800099Y-56899500D01*
X128799999Y-56899459D01*
X128790362Y-56899459D01*
X128790156Y-56899500D01*
X127209844Y-56899500D01*
X127209638Y-56899459D01*
X127200001Y-56899459D01*
X127200000Y-56899459D01*
X127199901Y-56899500D01*
X127199758Y-56899558D01*
X127199616Y-56899617D01*
X127199459Y-56899999D01*
X127199465Y-56909672D01*
X127199500Y-56909843D01*
X127199500Y-61950500D01*
X127185148Y-61985148D01*
X127150500Y-61999500D01*
X127129588Y-61999500D01*
X127125791Y-62000000D01*
X125580709Y-62000000D01*
X125577232Y-61999500D01*
X125571961Y-61999500D01*
X125428039Y-61999500D01*
X125422768Y-61999500D01*
X125419291Y-62000000D01*
X123580709Y-62000000D01*
X123577232Y-61999500D01*
X123571961Y-61999500D01*
X123428039Y-61999500D01*
X123422768Y-61999500D01*
X123419291Y-62000000D01*
X121580709Y-62000000D01*
X121577232Y-61999500D01*
X121571961Y-61999500D01*
X121428039Y-61999500D01*
X121422768Y-61999500D01*
X121419291Y-62000000D01*
X119580709Y-62000000D01*
X119577232Y-61999500D01*
X119571961Y-61999500D01*
X119428039Y-61999500D01*
X119422768Y-61999500D01*
X119419291Y-62000000D01*
X117580709Y-62000000D01*
X117577232Y-61999500D01*
X117571961Y-61999500D01*
X117428039Y-61999500D01*
X117422768Y-61999500D01*
X117419291Y-62000000D01*
X115580709Y-62000000D01*
X115577232Y-61999500D01*
X115571961Y-61999500D01*
X115428039Y-61999500D01*
X115422768Y-61999500D01*
X115419291Y-62000000D01*
X113580709Y-62000000D01*
X113577232Y-61999500D01*
X113571961Y-61999500D01*
X113428039Y-61999500D01*
X113422768Y-61999500D01*
X113419291Y-62000000D01*
X111580709Y-62000000D01*
X111577232Y-61999500D01*
X111571961Y-61999500D01*
X111428039Y-61999500D01*
X111422768Y-61999500D01*
X111419291Y-62000000D01*
X110074209Y-62000000D01*
X110070412Y-61999500D01*
X110065892Y-61999500D01*
X110049500Y-61999500D01*
X110014852Y-61985148D01*
X110000500Y-61950500D01*
X110000500Y-52049500D01*
X110014852Y-52014852D01*
X110049500Y-52000500D01*
X117990157Y-52000500D01*
X117990327Y-52000534D01*
X117999997Y-52000539D01*
X118000000Y-52000541D01*
X118000383Y-52000383D01*
X118000500Y-52000099D01*
X118000500Y-52000098D01*
X118000526Y-52000108D01*
X118000535Y-52000013D01*
X118000541Y-52000000D01*
X118000540Y-51999998D01*
X118000541Y-51999997D01*
X118000541Y-51990362D01*
X118000500Y-51990156D01*
X118000500Y-50449500D01*
X118014852Y-50414852D01*
X118049500Y-50400500D01*
X137950500Y-50400500D01*
X137985148Y-50414852D01*
G37*
%TD.AperFunction*%
%TD*%
%TA.AperFunction,Conductor*%
%TO.N,GND*%
G36*
X111789947Y-99040047D02*
G01*
X111668870Y-99117858D01*
X111574623Y-99226625D01*
X111514834Y-99357542D01*
X111494353Y-99499999D01*
X111514834Y-99642457D01*
X111574623Y-99773374D01*
X111643793Y-99853200D01*
X111668872Y-99882143D01*
X111789947Y-99959953D01*
X111926336Y-100000000D01*
X110067758Y-100000000D01*
X110193186Y-99966392D01*
X110307314Y-99900500D01*
X110400500Y-99807314D01*
X110466392Y-99693186D01*
X110500500Y-99565892D01*
X110500500Y-99434108D01*
X110466392Y-99306813D01*
X110400500Y-99192685D01*
X110307314Y-99099499D01*
X110193186Y-99033607D01*
X110067758Y-99000000D01*
X111926336Y-99000000D01*
X111789947Y-99040047D01*
G37*
%TD.AperFunction*%
%TD*%
M02*
